<svg xmlns="http://www.w3.org/2000/svg" xmlns:xlink="http://www.w3.org/1999/xlink" viewBox="0 0 259.2 259.2"><defs><style>.cls-1{isolation:isolate;}.cls-104,.cls-2,.cls-29,.cls-33,.cls-60,.cls-61,.cls-65,.cls-68,.cls-69,.cls-70,.cls-72,.cls-74,.cls-77,.cls-78,.cls-82{mix-blend-mode:multiply;}.cls-103,.cls-105,.cls-21,.cls-3,.cls-32,.cls-56{fill:#fff;}.cls-4{fill:#e7e5e5;}.cls-5{fill:#d5d3d3;}.cls-6{fill:#c5c3c2;}.cls-7{fill:#b6b4b3;}.cls-8{fill:#a8a5a5;}.cls-9{fill:#9b9898;}.cls-10{fill:#8d8b8b;}.cls-11{fill:#817f7f;}.cls-12{fill:#767474;}.cls-13{fill:#6b6a6a;}.cls-14{fill:#606161;}.cls-15{fill:url(#radial-gradient);}.cls-16{fill:#7d1b16;}.cls-17{fill:url(#radial-gradient-2);}.cls-18{fill:#0a3a5b;}.cls-19{fill:url(#radial-gradient-3);}.cls-20{fill:url(#radial-gradient-4);}.cls-21{opacity:0.3;}.cls-105,.cls-21,.cls-32,.cls-55,.cls-56{mix-blend-mode:overlay;}.cls-22{fill:url(#radial-gradient-5);}.cls-23{fill:url(#radial-gradient-6);}.cls-24{fill:url(#radial-gradient-7);}.cls-25{fill:url(#radial-gradient-8);}.cls-26{fill:url(#radial-gradient-9);}.cls-27{fill:#5b5b5b;}.cls-28{fill:url(#radial-gradient-10);}.cls-29,.cls-35{fill:#7d7d7d;}.cls-29,.cls-55,.cls-66,.cls-68,.cls-72,.cls-82{opacity:0.5;}.cls-30{fill:url(#linear-gradient);}.cls-31{fill:url(#linear-gradient-2);}.cls-33,.cls-56{opacity:0.9;}.cls-34{fill:url(#radial-gradient-11);}.cls-36{fill:url(#radial-gradient-12);}.cls-37{fill:url(#radial-gradient-13);}.cls-38{fill:url(#radial-gradient-14);}.cls-39{fill:url(#radial-gradient-15);}.cls-40{fill:url(#radial-gradient-16);}.cls-41{fill:url(#radial-gradient-17);}.cls-42{fill:url(#radial-gradient-18);}.cls-43{fill:url(#radial-gradient-19);}.cls-44{fill:url(#radial-gradient-20);}.cls-45{fill:url(#radial-gradient-21);}.cls-46{fill:url(#radial-gradient-22);}.cls-47{fill:url(#radial-gradient-23);}.cls-48{fill:url(#radial-gradient-24);}.cls-49{fill:#9b9b9b;}.cls-50{fill:url(#radial-gradient-25);}.cls-51{fill:url(#radial-gradient-26);}.cls-52{fill:url(#radial-gradient-27);}.cls-53{fill:url(#radial-gradient-28);}.cls-54{fill:url(#radial-gradient-29);}.cls-57,.cls-62,.cls-63,.cls-65,.cls-66,.cls-79{fill:#ebebec;}.cls-58{fill:#e35844;}.cls-59,.cls-60,.cls-61,.cls-68,.cls-78{fill:#dad9db;}.cls-60{opacity:0.8;}.cls-103,.cls-62{opacity:0.7;}.cls-103,.cls-62,.cls-63,.cls-66,.cls-75,.cls-76{mix-blend-mode:screen;}.cls-64{fill:#b2b3b5;}.cls-67{fill:#d4d5d5;}.cls-69,.cls-72{fill:#c9cacb;}.cls-70{fill:#c7c8c9;}.cls-71{fill:#2b4270;}.cls-73{fill:url(#radial-gradient-30);}.cls-74{fill:url(#radial-gradient-31);}.cls-75{fill:url(#radial-gradient-32);}.cls-76{fill:url(#radial-gradient-33);}.cls-77{fill:#c6c8d0;}.cls-104,.cls-78,.cls-79{opacity:0.6;}.cls-80{fill:#59c09e;}.cls-80,.cls-81{fill-rule:evenodd;}.cls-106,.cls-81{fill:#151032;}.cls-83{fill:url(#radial-gradient-34);}.cls-84{fill:url(#radial-gradient-35);}.cls-85{fill:url(#radial-gradient-36);}.cls-86{fill:url(#radial-gradient-37);}.cls-87{fill:url(#radial-gradient-38);}.cls-88{fill:#ef932f;}.cls-89{fill:url(#radial-gradient-39);}.cls-90{fill:url(#radial-gradient-40);}.cls-91{fill:url(#radial-gradient-41);}.cls-92{fill:url(#radial-gradient-42);}.cls-93{fill:url(#radial-gradient-43);}.cls-94{fill:url(#radial-gradient-44);}.cls-95{fill:url(#radial-gradient-45);}.cls-96{fill:url(#radial-gradient-46);}.cls-97{fill:url(#radial-gradient-47);}.cls-98{fill:url(#radial-gradient-48);}.cls-99{fill:url(#radial-gradient-49);}.cls-100{fill:url(#radial-gradient-50);}.cls-101{fill:url(#radial-gradient-52);}.cls-102{fill:#015ba1;}.cls-105{opacity:0.4;}.cls-106{font-size:6px;font-family:Montserrat-SemiBold, Montserrat;font-weight:600;}</style><radialGradient id="radial-gradient" cx="-698.73" cy="-530.27" r="17.44" gradientTransform="translate(683.13 637.46) scale(0.91)" gradientUnits="userSpaceOnUse"><stop offset="0" stop-color="#f3c096"/><stop offset="0" stop-color="#f3bf95"/><stop offset="0.17" stop-color="#ed8269"/><stop offset="0.32" stop-color="#e95549"/><stop offset="0.43" stop-color="#e73935"/><stop offset="0.49" stop-color="#e62f2e"/><stop offset="0.64" stop-color="#d22b2a"/><stop offset="0.92" stop-color="#9e1f1f"/><stop offset="1" stop-color="#8f1c1c"/></radialGradient><radialGradient id="radial-gradient-2" cx="-699.29" cy="-520.4" r="14.79" gradientTransform="translate(683.13 637.46) scale(0.91)" gradientUnits="userSpaceOnUse"><stop offset="0" stop-color="#36a2db"/><stop offset="0.14" stop-color="#3599d5"/><stop offset="0.35" stop-color="#3282c4"/><stop offset="0.51" stop-color="#2f6eb6"/><stop offset="0.65" stop-color="#2d65ad"/><stop offset="0.88" stop-color="#264e96"/><stop offset="0.99" stop-color="#224088"/></radialGradient><radialGradient id="radial-gradient-3" cx="-693.2" cy="-517.91" r="9.02" xlink:href="#radial-gradient-2"/><radialGradient id="radial-gradient-4" cx="-696.06" cy="-532.64" r="19.93" gradientTransform="translate(683.13 637.46) scale(0.91)" gradientUnits="userSpaceOnUse"><stop offset="0" stop-color="#f3c096"/><stop offset="0" stop-color="#f3bf95"/><stop offset="0.25" stop-color="#ed8269"/><stop offset="0.46" stop-color="#e95549"/><stop offset="0.62" stop-color="#e73935"/><stop offset="0.71" stop-color="#e62f2e"/><stop offset="0.79" stop-color="#d22b2a"/><stop offset="0.96" stop-color="#9e1f1f"/><stop offset="1" stop-color="#8f1c1c"/></radialGradient><radialGradient id="radial-gradient-5" cx="-524.81" cy="-532.06" r="19.13" xlink:href="#radial-gradient"/><radialGradient id="radial-gradient-6" cx="-522.76" cy="-518.3" r="15.81" xlink:href="#radial-gradient-2"/><radialGradient id="radial-gradient-7" cx="-523.85" cy="-529.45" r="21.74" xlink:href="#radial-gradient-4"/><radialGradient id="radial-gradient-8" cx="-528.06" cy="-516.69" r="11.67" xlink:href="#radial-gradient-2"/><radialGradient id="radial-gradient-9" cx="-614.01" cy="-648.9" r="157.36" gradientTransform="translate(683.13 637.46) scale(0.91)" gradientUnits="userSpaceOnUse"><stop offset="0" stop-color="#dfdfde"/><stop offset="0.27" stop-color="#dcdcdb"/><stop offset="0.44" stop-color="#d4d4d3"/><stop offset="0.58" stop-color="#c5c5c5"/><stop offset="0.71" stop-color="#b0b1b0"/><stop offset="0.83" stop-color="#959696"/><stop offset="0.94" stop-color="#757676"/><stop offset="1" stop-color="#5e5f5f"/></radialGradient><radialGradient id="radial-gradient-10" cx="-611.73" cy="-684.29" r="185.3" gradientTransform="translate(683.13 637.46) scale(0.91)" gradientUnits="userSpaceOnUse"><stop offset="0" stop-color="#36a2db"/><stop offset="0.14" stop-color="#3599d5"/><stop offset="0.35" stop-color="#3282c4"/><stop offset="0.51" stop-color="#2f6eb6"/><stop offset="0.76" stop-color="#2e6cb4"/><stop offset="0.85" stop-color="#2d65ad"/><stop offset="0.92" stop-color="#295aa2"/><stop offset="0.97" stop-color="#244991"/><stop offset="0.99" stop-color="#224088"/></radialGradient><linearGradient id="linear-gradient" x1="69.82" y1="105.18" x2="187.4" y2="105.18" gradientUnits="userSpaceOnUse"><stop offset="0" stop-color="#7e7f7f"/><stop offset="0.02" stop-color="#878888"/><stop offset="0.1" stop-color="#a7a8a7"/><stop offset="0.19" stop-color="#c0c0bf"/><stop offset="0.28" stop-color="#d1d1d0"/><stop offset="0.37" stop-color="#dcdcdb"/><stop offset="0.49" stop-color="#dfdfde"/><stop offset="0.59" stop-color="#dbdbda"/><stop offset="0.69" stop-color="#cfcfce"/><stop offset="0.79" stop-color="#bbb"/><stop offset="0.89" stop-color="#a0a09f"/><stop offset="0.99" stop-color="#7c7c7c"/><stop offset="1" stop-color="#777"/></linearGradient><linearGradient id="linear-gradient-2" x1="128.61" y1="120.69" x2="128.61" y2="80.64" gradientUnits="userSpaceOnUse"><stop offset="0" stop-color="#7e7f7f"/><stop offset="1" stop-color="#dfdfde"/></linearGradient><radialGradient id="radial-gradient-11" cx="-615.65" cy="-648.28" r="157.36" xlink:href="#radial-gradient-9"/><radialGradient id="radial-gradient-12" cx="-612.46" cy="-533.5" r="1.4" xlink:href="#radial-gradient-2"/><radialGradient id="radial-gradient-13" cx="-645.64" cy="-536.29" r="1.39" xlink:href="#radial-gradient-2"/><radialGradient id="radial-gradient-14" cx="-674.09" cy="-540.4" r="1.4" xlink:href="#radial-gradient-2"/><radialGradient id="radial-gradient-15" cx="-702.89" cy="-546.52" r="1.4" xlink:href="#radial-gradient-2"/><radialGradient id="radial-gradient-16" cx="-731.33" cy="-556.21" r="1.4" xlink:href="#radial-gradient-2"/><radialGradient id="radial-gradient-17" cx="-580.56" cy="-536.29" r="1.4" xlink:href="#radial-gradient-2"/><radialGradient id="radial-gradient-18" cx="-550.74" cy="-540.4" r="1.4" xlink:href="#radial-gradient-2"/><radialGradient id="radial-gradient-19" cx="-523.81" cy="-547.91" r="1.4" xlink:href="#radial-gradient-2"/><radialGradient id="radial-gradient-20" cx="-495.39" cy="-559.41" r="1.39" xlink:href="#radial-gradient-2"/><radialGradient id="radial-gradient-21" cx="-621.51" cy="-596.93" r="0.74" xlink:href="#radial-gradient-2"/><radialGradient id="radial-gradient-22" cx="-634.21" cy="-596.19" r="0.74" xlink:href="#radial-gradient-2"/><radialGradient id="radial-gradient-23" cx="-646.91" cy="-594.71" r="0.74" xlink:href="#radial-gradient-2"/><radialGradient id="radial-gradient-24" cx="-656.86" cy="-592.84" r="0.74" xlink:href="#radial-gradient-2"/><radialGradient id="radial-gradient-25" cx="-603.8" cy="-596.93" r="0.74" xlink:href="#radial-gradient-2"/><radialGradient id="radial-gradient-26" cx="-591.09" cy="-596.19" r="0.74" xlink:href="#radial-gradient-2"/><radialGradient id="radial-gradient-27" cx="-578.39" cy="-594.71" r="0.74" xlink:href="#radial-gradient-2"/><radialGradient id="radial-gradient-28" cx="-568.45" cy="-592.84" r="0.74" xlink:href="#radial-gradient-2"/><radialGradient id="radial-gradient-29" cx="-557.31" cy="-589.62" r="0.74" xlink:href="#radial-gradient-2"/><radialGradient id="radial-gradient-30" cx="-4176.42" cy="-5528.14" r="24.45" gradientTransform="matrix(0.55, -0.01, 0.01, 0.55, 2438.34, 3078.61)" gradientUnits="userSpaceOnUse"><stop offset="0.15" stop-color="#22697f"/><stop offset="0.49" stop-color="#024060"/><stop offset="0.98" stop-color="#010101"/></radialGradient><radialGradient id="radial-gradient-31" cx="-4170.67" cy="-5556.58" r="48.85" gradientTransform="matrix(0.55, -0.01, 0.01, 0.55, 2438.34, 3078.61)" gradientUnits="userSpaceOnUse"><stop offset="0.28" stop-color="#22697f"/><stop offset="0.42" stop-color="#0e3b59"/><stop offset="0.59" stop-color="#0c2a4a"/><stop offset="0.7" stop-color="#081c32"/><stop offset="0.9" stop-color="#03090e"/><stop offset="1" stop-color="#010101"/></radialGradient><radialGradient id="radial-gradient-32" cx="-4192.1" cy="-5542.86" r="30.7" gradientTransform="matrix(0.55, -0.01, 0.01, 0.55, 2438.34, 3078.61)" gradientUnits="userSpaceOnUse"><stop offset="0.29" stop-color="#fff"/><stop offset="0.69" stop-color="#6d6d6d"/><stop offset="1" stop-color="#010101"/></radialGradient><radialGradient id="radial-gradient-33" cx="-4192.1" cy="-5542.86" r="30.7" xlink:href="#radial-gradient-32"/><radialGradient id="radial-gradient-34" cx="-611.58" cy="-557.23" r="17.65" gradientTransform="translate(683.13 637.46) scale(0.91)" gradientUnits="userSpaceOnUse"><stop offset="0" stop-color="#dfdfde"/><stop offset="0.66" stop-color="#9c9c9c"/><stop offset="1" stop-color="#7e7f7f"/></radialGradient><radialGradient id="radial-gradient-35" cx="-612.07" cy="-562.43" r="19.79" xlink:href="#radial-gradient-2"/><radialGradient id="radial-gradient-36" cx="-612.07" cy="-562.43" r="19.79" gradientTransform="translate(683.13 637.46) scale(0.91)" gradientUnits="userSpaceOnUse"><stop offset="0" stop-color="#afe1f9"/><stop offset="0.09" stop-color="#9bdbf7"/><stop offset="0.29" stop-color="#68ccf1"/><stop offset="0.56" stop-color="#17b4e9"/><stop offset="0.58" stop-color="#0fb2e8"/><stop offset="0.69" stop-color="#0faae2"/><stop offset="0.86" stop-color="#1194d2"/><stop offset="1" stop-color="#127dc2"/></radialGradient><radialGradient id="radial-gradient-37" cx="-612.02" cy="-561.5" r="16.13" xlink:href="#radial-gradient-36"/><radialGradient id="radial-gradient-38" cx="-612.67" cy="-565.72" r="19.21" gradientTransform="translate(683.13 637.46) scale(0.91)" gradientUnits="userSpaceOnUse"><stop offset="0.24" stop-color="#fdf7c7"/><stop offset="0.65" stop-color="#fbe31f"/><stop offset="0.68" stop-color="#f9de21"/><stop offset="0.88" stop-color="#f1c22b"/><stop offset="1" stop-color="#eeb82f"/></radialGradient><radialGradient id="radial-gradient-39" cx="-612.67" cy="-565.68" r="19.18" xlink:href="#radial-gradient-38"/><radialGradient id="radial-gradient-40" cx="-663.76" cy="-569.49" r="23.58" gradientTransform="translate(661.25 642.13) scale(0.95 0.94)" xlink:href="#radial-gradient-34"/><radialGradient id="radial-gradient-41" cx="-718.29" cy="-584.69" r="23.58" xlink:href="#radial-gradient-2"/><radialGradient id="radial-gradient-42" cx="1995.63" cy="-583.49" r="19.96" gradientTransform="matrix(-0.91, 0, 0, 0.91, 1843.97, 637.46)" xlink:href="#radial-gradient-36"/><radialGradient id="radial-gradient-43" cx="1995.65" cy="-582.43" r="16.12" gradientTransform="matrix(-0.91, 0, 0, 0.91, 1843.97, 637.46)" xlink:href="#radial-gradient-36"/><radialGradient id="radial-gradient-44" cx="-713.83" cy="-583.02" r="15.23" xlink:href="#radial-gradient-38"/><radialGradient id="radial-gradient-45" cx="1995.66" cy="-583.32" r="19.94" gradientTransform="matrix(-0.91, 0, 0, 0.91, 1843.97, 637.46)" xlink:href="#radial-gradient-38"/><radialGradient id="radial-gradient-46" cx="-510.88" cy="-582.56" r="20.65" xlink:href="#radial-gradient-34"/><radialGradient id="radial-gradient-47" cx="-510" cy="-583.05" r="19.96" xlink:href="#radial-gradient-2"/><radialGradient id="radial-gradient-48" cx="-510" cy="-583.05" r="19.96" xlink:href="#radial-gradient-36"/><radialGradient id="radial-gradient-49" cx="-509.98" cy="-581.99" r="16.12" xlink:href="#radial-gradient-36"/><radialGradient id="radial-gradient-50" cx="-509.98" cy="-582.88" r="19.94" xlink:href="#radial-gradient-38"/><radialGradient id="radial-gradient-52" cx="-624.54" cy="-660.52" r="88.18" xlink:href="#radial-gradient-36"/></defs><title>TAKE ME TO THE QUADRATIC LANDS</title><g class="cls-1"><g id="Layer_1" data-name="Layer 1"><g class="cls-2"><path class="cls-3" d="M44.85,106.43Zm208.53,29c-2.28-8.4-7.91-16.07-16.76-22.85a27.12,27.12,0,0,0-16.2-10.14l-.28,0-.62-.11a139.23,139.23,0,0,0-18.43-7.25,72.47,72.47,0,0,0-69.28-53.69h-.64A70.37,70.37,0,0,0,87.54,56.87l-.24.19-.08.07c-.64.52-1.28,1-1.9,1.57A72.09,72.09,0,0,0,75.08,69.55l-.14.18-.29.37-.21.29-.07.1a71.92,71.92,0,0,0-12.2,25.68,133.86,133.86,0,0,0-14.82,6,20.51,20.51,0,0,0-2.78.08h-.16c-8,.76-15.88,6.3-20.11,14.1-.2.37-.38.75-.56,1.16-5.43,5.14-9.16,10.63-11.13,16.39a6.5,6.5,0,0,0-1.47.43c-.19.08-.37.16-.56.26l-.33.2-.12.08-.28.2a5.29,5.29,0,0,0-2.1,3.73,5.75,5.75,0,0,0,1.76,4.5c3,3,7,4.87,10.5,6.51l1.61.75a157,157,0,0,0,29.15,10.29L50.68,162c0,.26,0,.52-.07.77a13.89,13.89,0,0,0,0,3.65c0,.14,0,.28,0,.42h0c.16,4,.51,12.43,6.8,14.81a5.83,5.83,0,0,0,2.1.39,6.37,6.37,0,0,0,4.65-2.09A8.8,8.8,0,0,0,66,176.68c.36-1,.66-2,1-3,.22-.76.45-1.52.72-2.31l0-.13c.15-.42.3-.86.45-1.3.4-1.16.81-2.35,1.26-3.53.22-.52.44-1,.66-1.51,2.61.45,5.3.89,8.13,1.32a353.56,353.56,0,0,0,52.82,3.83c7.41,0,15.06-.21,22.72-.63a326.26,326.26,0,0,0,40.33-4.6c0,.1.09.19.13.29a.25.25,0,0,0,0,.07c.14.32.29.66.42,1l.21.49c.42,1.1.8,2.22,1.17,3.3.14.39.27.77.39,1.13l0,.12.07.21c.17.5.34,1.13.51,1.8a16,16,0,0,0,2.83,6.49,6.34,6.34,0,0,0,6.59,2c3.19-.9,4.61-3.88,5.14-5a24.84,24.84,0,0,0,2-9.74,15.23,15.23,0,0,0,0-5.1c0-.33-.09-.62-.1-.85s0-.34,0-.51c2.94-.77,5.83-1.59,8.63-2.44a138.08,138.08,0,0,0,24.51-9.9l.51-.25c3.12-1.55,6.54-3.46,7.6-6.61a5.82,5.82,0,0,0-.33-4.48A5.39,5.39,0,0,0,253.38,135.47Z"/><path class="cls-4" d="M44.59,106.15Zm208.52,29c-2.27-8.4-7.9-16.07-16.75-22.85a27.15,27.15,0,0,0-16.2-10.14l-.28,0-.62-.11a139.23,139.23,0,0,0-18.43-7.25A72.28,72.28,0,0,0,145,42.5a74.08,74.08,0,0,0-13.42-1.39h-.64A70.4,70.4,0,0,0,87.27,56.59a2.11,2.11,0,0,1-.23.19l-.08.07c-.64.52-1.28,1-1.9,1.57A72.57,72.57,0,0,0,74.82,69.27l-.14.18-.29.37-.21.29-.08.11A71.94,71.94,0,0,0,61.91,95.89a133.86,133.86,0,0,0-14.82,6,20.66,20.66,0,0,0-2.79.08h-.15c-8,.76-15.88,6.3-20.11,14.1a12.46,12.46,0,0,0-.56,1.16c-5.43,5.14-9.16,10.64-11.13,16.39a6.5,6.5,0,0,0-1.47.43c-.19.08-.37.16-.56.26l-.33.2-.12.08-.28.2a5.35,5.35,0,0,0-2.1,3.73A5.75,5.75,0,0,0,9.25,143c3,3,7,4.87,10.49,6.51l1.61.75a156.62,156.62,0,0,0,29.16,10.29l-.09,1.16c0,.25,0,.51-.07.76a13.89,13.89,0,0,0,0,3.65c0,.14,0,.28,0,.43h0c.17,4,.52,12.42,6.81,14.8a5.83,5.83,0,0,0,2.1.39,6.37,6.37,0,0,0,4.64-2.09,8.7,8.7,0,0,0,1.87-3.26c.36-1,.66-2,1-3,.23-.76.46-1.52.73-2.31a.93.93,0,0,1,0-.13c.14-.42.29-.86.45-1.3.39-1.16.8-2.35,1.25-3.53.23-.52.45-1,.67-1.51,2.61.45,5.3.89,8.13,1.32a353.46,353.46,0,0,0,52.82,3.83c7.41,0,15.06-.21,22.72-.63a326.26,326.26,0,0,0,40.33-4.6c0,.1.09.19.13.29l0,.07c.15.32.3.66.43,1l.21.49c.42,1.11.8,2.22,1.17,3.31.13.38.26.76.39,1.12l0,.12a1.72,1.72,0,0,0,.07.21c.17.5.33,1.13.51,1.8a16,16,0,0,0,2.82,6.49,6.36,6.36,0,0,0,6.6,2c3.18-.9,4.61-3.88,5.14-5a24.65,24.65,0,0,0,2-9.74,14.72,14.72,0,0,0,0-5.1c0-.33-.08-.62-.09-.85s0-.34,0-.51c2.94-.77,5.83-1.59,8.62-2.44a137.88,137.88,0,0,0,24.52-9.9l.51-.25c3.12-1.55,6.54-3.46,7.59-6.61a5.77,5.77,0,0,0-.32-4.48A5.21,5.21,0,0,0,253.11,135.19Z"/><path class="cls-5" d="M44.33,105.87Zm208.52,29c-2.27-8.4-7.9-16.07-16.75-22.85a27.19,27.19,0,0,0-16.21-10.14l-.27,0-.62-.11a137.86,137.86,0,0,0-18.43-7.24,72.27,72.27,0,0,0-55.86-52.31,74.17,74.17,0,0,0-13.42-1.39h-.64A70.4,70.4,0,0,0,87,56.31l-.23.19-.08.07c-.64.52-1.29,1-1.9,1.58A71.52,71.52,0,0,0,74.56,69l-.14.18-.29.37-.21.29-.08.11A71.77,71.77,0,0,0,61.65,95.61a133.08,133.08,0,0,0-14.82,6,20.66,20.66,0,0,0-2.79.08h-.15c-8,.76-15.89,6.3-20.12,14.1-.19.37-.38.75-.55,1.16-5.43,5.14-9.16,10.64-11.13,16.39a6.35,6.35,0,0,0-1.47.43c-.19.08-.37.16-.56.26l-.33.2-.13.08-.28.2a5.3,5.3,0,0,0-2.09,3.73A5.71,5.71,0,0,0,9,142.73c3,3,7,4.88,10.49,6.51l1.61.75a156.62,156.62,0,0,0,29.16,10.29c0,.39-.07.77-.09,1.16s0,.51-.07.76a13.89,13.89,0,0,0,0,3.65,3.08,3.08,0,0,0,0,.43h0c.17,4,.52,12.42,6.81,14.81a6,6,0,0,0,2.1.38,6.37,6.37,0,0,0,4.64-2.09,8.84,8.84,0,0,0,1.87-3.26c.36-1,.66-2,.95-3,.23-.76.46-1.52.72-2.31,0,0,0-.08,0-.13l.44-1.3c.4-1.16.81-2.35,1.26-3.53.22-.52.45-1,.67-1.51,2.61.46,5.29.89,8.13,1.32a353.36,353.36,0,0,0,52.82,3.83c7.41,0,15-.21,22.72-.63a326.26,326.26,0,0,0,40.33-4.6c0,.1.08.19.13.29l0,.07c.15.32.29.66.43,1l.21.49c.41,1.11.8,2.22,1.17,3.31.13.38.26.76.39,1.12l0,.12a1.72,1.72,0,0,0,.07.21c.17.51.33,1.13.5,1.8a16.19,16.19,0,0,0,2.83,6.49,6.35,6.35,0,0,0,6.6,2c3.18-.9,4.61-3.88,5.14-5a24.65,24.65,0,0,0,2-9.74,15,15,0,0,0,0-5.1c0-.33-.08-.62-.1-.85l0-.51c2.94-.77,5.83-1.59,8.62-2.44a137.47,137.47,0,0,0,24.51-9.9l.51-.25c3.13-1.55,6.55-3.46,7.6-6.61a5.79,5.79,0,0,0-.32-4.47A5.11,5.11,0,0,0,252.85,134.91Z"/><path class="cls-6" d="M44.07,105.59Zm208.52,29c-2.28-8.4-7.9-16.07-16.76-22.85a27.14,27.14,0,0,0-16.2-10.14l-.27,0-.62-.11a137.48,137.48,0,0,0-18.44-7.24,72.27,72.27,0,0,0-55.85-52.31A75.17,75.17,0,0,0,131,40.55h-.64A70.4,70.4,0,0,0,86.75,56l-.23.19-.08.07c-.65.52-1.29,1-1.91,1.58A71.45,71.45,0,0,0,74.3,68.71l-.14.18c-.1.12-.2.25-.29.38s-.15.19-.22.28l-.07.11A71.77,71.77,0,0,0,61.39,95.33a132.31,132.31,0,0,0-14.82,6,20.66,20.66,0,0,0-2.79.08h-.16c-8,.77-15.88,6.3-20.11,14.1a12.42,12.42,0,0,0-.55,1.16c-5.44,5.14-9.17,10.64-11.14,16.39a7.23,7.23,0,0,0-1.47.43c-.18.08-.36.16-.55.26l-.33.2a.57.57,0,0,0-.13.08l-.28.21A5.26,5.26,0,0,0,7,138a5.71,5.71,0,0,0,1.76,4.5c3,3,7,4.88,10.49,6.51l1.61.75A156.62,156.62,0,0,0,50,160c0,.39-.07.77-.09,1.16s0,.51-.07.76a13.89,13.89,0,0,0,0,3.65,3.09,3.09,0,0,0,0,.43h0c.17,4,.52,12.42,6.81,14.81a6,6,0,0,0,2.1.38,6.37,6.37,0,0,0,4.64-2.09,9,9,0,0,0,1.87-3.26c.36-1,.66-2,1-3,.23-.76.46-1.52.72-2.3a.74.74,0,0,0,0-.14c.15-.42.3-.86.45-1.3.4-1.16.81-2.35,1.26-3.53.22-.52.44-1,.67-1.51,2.61.46,5.29.89,8.13,1.32a353.32,353.32,0,0,0,52.81,3.83c7.42,0,15.06-.21,22.73-.63a325.87,325.87,0,0,0,40.32-4.6l.14.29,0,.07c.15.32.29.66.43,1l.21.49c.41,1.11.8,2.22,1.17,3.31l.38,1.12s0,.08,0,.12l.06.21c.18.51.34,1.13.51,1.8a16.19,16.19,0,0,0,2.83,6.49,6.34,6.34,0,0,0,6.59,2c3.19-.9,4.61-3.88,5.15-5a25,25,0,0,0,2-9.74,15.23,15.23,0,0,0,0-5.1c0-.33-.08-.62-.1-.85s0-.33,0-.51c3-.77,5.84-1.59,8.63-2.44a136.72,136.72,0,0,0,24.51-9.9l.51-.25c3.13-1.54,6.55-3.46,7.6-6.61a5.79,5.79,0,0,0-.32-4.47A5.54,5.54,0,0,0,252.59,134.63Z"/><path class="cls-7" d="M43.8,105.31Zm208.53,29c-2.28-8.4-7.91-16.07-16.76-22.85a27.17,27.17,0,0,0-16.2-10.14l-.27,0-.63-.11A137.33,137.33,0,0,0,200,94a72.27,72.27,0,0,0-55.85-52.31,75.17,75.17,0,0,0-13.42-1.39h-.64A70.4,70.4,0,0,0,86.49,55.75l-.23.19-.08.07c-.65.52-1.29,1-1.91,1.58A72,72,0,0,0,74,68.43l-.14.18c-.09.13-.19.25-.29.38l-.21.29-.07.1A71.6,71.6,0,0,0,61.13,95.05a133.26,133.26,0,0,0-14.83,6,20.55,20.55,0,0,0-2.78.08h-.16c-8,.77-15.88,6.3-20.11,14.1a12.42,12.42,0,0,0-.55,1.16c-5.44,5.14-9.17,10.64-11.14,16.39a7.23,7.23,0,0,0-1.47.43c-.18.08-.37.16-.55.26l-.34.2-.12.08L8.8,134a5.26,5.26,0,0,0-2.09,3.73,5.66,5.66,0,0,0,1.76,4.49c3,3,7,4.88,10.49,6.51l1.61.76a157,157,0,0,0,29.15,10.28l-.09,1.16c0,.25,0,.51-.06.77a13.78,13.78,0,0,0,0,3.64c0,.14,0,.29,0,.43h0c.17,4,.51,12.42,6.8,14.81a6.09,6.09,0,0,0,2.1.38,6.37,6.37,0,0,0,4.65-2.09A9,9,0,0,0,65,175.56c.35-1,.66-2,1-3,.23-.76.46-1.52.72-2.3,0-.05,0-.09,0-.14.15-.42.3-.85.45-1.3.4-1.15.81-2.35,1.26-3.53.22-.52.44-1,.66-1.51,2.62.46,5.3.89,8.13,1.32A353.56,353.56,0,0,0,130,169c7.42,0,15.06-.21,22.72-.63a325.81,325.81,0,0,0,40.33-4.6c0,.1.09.19.13.29l0,.07c.15.32.29.66.43,1l.2.49c.42,1.11.8,2.23,1.17,3.31.14.38.27.76.39,1.12l0,.12a1.72,1.72,0,0,1,.07.21c.17.51.34,1.13.51,1.8a16.19,16.19,0,0,0,2.83,6.49,6.34,6.34,0,0,0,6.59,2c3.19-.9,4.61-3.88,5.15-5a25,25,0,0,0,2-9.74,15.23,15.23,0,0,0,0-5.1c0-.33-.08-.62-.1-.84s0-.34,0-.52c2.95-.77,5.83-1.59,8.63-2.44a137.77,137.77,0,0,0,24.51-9.89l.51-.26c3.12-1.54,6.55-3.45,7.6-6.61a5.79,5.79,0,0,0-.33-4.47A5.44,5.44,0,0,0,252.33,134.35Z"/><path class="cls-8" d="M43.54,105Zm208.53,29c-2.28-8.4-7.91-16.07-16.76-22.85a27.22,27.22,0,0,0-16.2-10.14l-.28,0-.62-.11a137.86,137.86,0,0,0-18.43-7.24,72.27,72.27,0,0,0-55.85-52.31A75.19,75.19,0,0,0,130.5,40h-.64A70.37,70.37,0,0,0,86.23,55.47l-.24.2-.08.06c-.64.52-1.28,1-1.9,1.58A71.62,71.62,0,0,0,73.77,68.16l-.14.17-.29.38-.21.29-.07.1a71.79,71.79,0,0,0-12.2,25.67,133.86,133.86,0,0,0-14.82,6,22.49,22.49,0,0,0-2.79.08H43.1c-8,.77-15.88,6.3-20.11,14.1-.2.37-.38.75-.56,1.16-5.43,5.14-9.16,10.64-11.13,16.39a7.23,7.23,0,0,0-1.47.43c-.19.08-.37.16-.56.26l-.33.2-.12.08-.28.21a5.33,5.33,0,0,0-2.1,3.73,5.73,5.73,0,0,0,1.76,4.49c3,3,7,4.88,10.5,6.51l1.61.76a157,157,0,0,0,29.15,10.28l-.09,1.16c0,.25,0,.51-.07.77a13.89,13.89,0,0,0,0,3.65c0,.14,0,.28,0,.42h0c.16,4,.51,12.42,6.8,14.81a6,6,0,0,0,2.1.38,6.4,6.4,0,0,0,4.65-2.08,8.92,8.92,0,0,0,1.86-3.27c.36-1,.66-2,1-3,.22-.76.45-1.52.72-2.3,0-.05,0-.09,0-.14.15-.42.3-.85.45-1.3.4-1.15.81-2.35,1.26-3.53.22-.52.44-1,.66-1.51,2.61.46,5.3.89,8.13,1.32a353.56,353.56,0,0,0,52.82,3.83c7.41,0,15.06-.21,22.72-.63a324.35,324.35,0,0,0,40.33-4.6c0,.1.09.19.13.29l0,.07c.14.32.29.66.42,1l.21.49c.42,1.11.8,2.23,1.17,3.31.14.38.27.76.39,1.12l0,.12c0,.07.05.14.07.22.17.5.34,1.13.51,1.79a16,16,0,0,0,2.83,6.49,6.34,6.34,0,0,0,6.59,2c3.19-.89,4.61-3.88,5.14-5a24.83,24.83,0,0,0,2-9.73,15.28,15.28,0,0,0,0-5.11c0-.32-.09-.62-.1-.84s0-.34,0-.52c2.94-.77,5.83-1.59,8.62-2.44a137.88,137.88,0,0,0,24.52-9.89l.51-.26c3.12-1.54,6.54-3.45,7.59-6.61a5.74,5.74,0,0,0-.32-4.47A5.44,5.44,0,0,0,252.07,134.07Z"/><path class="cls-9" d="M43.28,104.75Zm208.52,29c-2.27-8.4-7.9-16.07-16.75-22.85a27.25,27.25,0,0,0-16.2-10.14l-.28,0-.62-.11a137.86,137.86,0,0,0-18.43-7.24A72.27,72.27,0,0,0,143.66,41.1a75.08,75.08,0,0,0-13.42-1.39h-.64A70.35,70.35,0,0,0,86,55.2l-.23.19-.08.06c-.64.52-1.28,1-1.9,1.58A71.62,71.62,0,0,0,73.51,67.88l-.14.17c-.1.13-.2.25-.29.38l-.21.29-.08.1A71.94,71.94,0,0,0,60.6,94.49a133.86,133.86,0,0,0-14.82,6,22.44,22.44,0,0,0-2.79.08h-.15c-8,.77-15.89,6.3-20.11,14.1a12.46,12.46,0,0,0-.56,1.16C16.74,121,13,126.46,11,132.21a6.52,6.52,0,0,0-1.47.44,3.51,3.51,0,0,0-.56.26l-.33.19-.12.08-.28.21a5.33,5.33,0,0,0-2.1,3.73,5.73,5.73,0,0,0,1.76,4.49c3,3,7,4.88,10.49,6.51l1.61.76A157.36,157.36,0,0,0,49.2,159.16l-.09,1.16c0,.25,0,.51-.07.77a13.89,13.89,0,0,0,0,3.65c0,.14,0,.28,0,.42h0c.17,4,.52,12.42,6.81,14.81a6,6,0,0,0,2.1.38,6.39,6.39,0,0,0,4.64-2.08A8.81,8.81,0,0,0,64.46,175c.36-1,.66-2,1-3,.23-.76.46-1.52.73-2.3a.74.74,0,0,1,0-.14c.14-.42.29-.85.45-1.3.39-1.15.8-2.35,1.25-3.53l.67-1.51c2.61.46,5.3.89,8.13,1.32a352.14,352.14,0,0,0,52.82,3.83c7.41,0,15.06-.21,22.72-.62a326.21,326.21,0,0,0,40.33-4.61c0,.1.09.2.13.29l0,.08c.15.31.3.66.43,1l.21.49c.42,1.11.8,2.23,1.17,3.31.13.38.26.76.39,1.12l0,.12c0,.07,0,.14.07.22.17.5.33,1.13.51,1.79a16,16,0,0,0,2.82,6.49,6.36,6.36,0,0,0,6.6,2c3.18-.89,4.61-3.88,5.14-5a24.64,24.64,0,0,0,2-9.73,14.78,14.78,0,0,0,0-5.11c0-.32-.08-.62-.09-.84s0-.34,0-.51c2.94-.78,5.83-1.6,8.62-2.45a137.88,137.88,0,0,0,24.52-9.89l.51-.26c3.12-1.54,6.54-3.45,7.59-6.61a5.74,5.74,0,0,0-.32-4.47A5.26,5.26,0,0,0,251.8,133.79Z"/><path class="cls-10" d="M43,104.47Zm208.52,29c-2.27-8.39-7.9-16.07-16.75-22.85a27.18,27.18,0,0,0-16.21-10.13l-.27,0-.62-.1a136.16,136.16,0,0,0-18.44-7.25A72.23,72.23,0,0,0,143.4,40.82,74.16,74.16,0,0,0,130,39.44h-.64A70.35,70.35,0,0,0,85.7,54.92l-.23.19-.08.06c-.64.52-1.29,1-1.9,1.58A70.63,70.63,0,0,0,73.25,67.6l-.14.17c-.1.13-.2.25-.29.38l-.21.29-.08.1A71.77,71.77,0,0,0,60.34,94.21a135,135,0,0,0-14.82,6,22.44,22.44,0,0,0-2.79.08h-.15c-8,.77-15.89,6.3-20.12,14.1-.19.37-.38.75-.55,1.16-5.43,5.14-9.16,10.64-11.13,16.39a6.91,6.91,0,0,0-1.47.44,3.51,3.51,0,0,0-.56.26l-.33.19-.13.08-.28.21a5.31,5.31,0,0,0-2.09,3.73,5.7,5.7,0,0,0,1.76,4.49c3,3,7,4.88,10.49,6.51l1.61.76a157.36,157.36,0,0,0,29.16,10.28c0,.39-.07.77-.09,1.16s-.05.51-.07.77a13.89,13.89,0,0,0,0,3.65,2.94,2.94,0,0,0,0,.42h0c.17,4,.52,12.42,6.81,14.81a6,6,0,0,0,2.1.38A6.39,6.39,0,0,0,62.33,178a8.81,8.81,0,0,0,1.87-3.27c.36-1,.66-2,1-3,.23-.76.46-1.52.72-2.3l0-.14.44-1.3c.4-1.15.81-2.35,1.26-3.53.22-.52.45-1,.67-1.51,2.61.46,5.29.89,8.13,1.32a352,352,0,0,0,52.82,3.83c7.41,0,15-.21,22.72-.62a325.82,325.82,0,0,0,40.32-4.61c.05.1.09.2.14.29l0,.08c.15.31.29.66.43,1l.21.48c.41,1.11.8,2.23,1.17,3.31.13.39.26.76.39,1.12l0,.12a1.87,1.87,0,0,0,.07.22c.17.5.33,1.13.5,1.79a16.19,16.19,0,0,0,2.83,6.49,6.33,6.33,0,0,0,6.6,2c3.18-.89,4.61-3.88,5.14-5a24.64,24.64,0,0,0,2-9.73,15.28,15.28,0,0,0,0-5.11c0-.32-.08-.62-.1-.84l0-.51c2.94-.78,5.83-1.59,8.62-2.45a137.46,137.46,0,0,0,24.51-9.89l.51-.26c3.13-1.54,6.55-3.45,7.6-6.61a5.79,5.79,0,0,0-.32-4.47A5.26,5.26,0,0,0,251.54,133.51Z"/><path class="cls-11" d="M42.76,104.19Zm208.52,29c-2.28-8.39-7.9-16.07-16.76-22.84a27.12,27.12,0,0,0-16.2-10.14l-.27,0-.63-.1A135.5,135.5,0,0,0,199,92.85a72.27,72.27,0,0,0-55.85-52.31,74.25,74.25,0,0,0-13.42-1.38h-.64A70.35,70.35,0,0,0,85.44,54.64a2.11,2.11,0,0,0-.23.19l-.08.06c-.65.52-1.29,1-1.91,1.58A71.06,71.06,0,0,0,73,67.32l-.14.17c-.1.13-.2.25-.29.38a3.15,3.15,0,0,0-.22.29l-.07.1A71.85,71.85,0,0,0,60.08,93.93a132.32,132.32,0,0,0-14.82,6,20.56,20.56,0,0,0-2.79.07h-.16c-8,.77-15.88,6.3-20.11,14.1a12.42,12.42,0,0,0-.55,1.16c-5.44,5.14-9.17,10.64-11.14,16.39a7.27,7.27,0,0,0-1.47.44,3.87,3.87,0,0,0-.55.26,2.59,2.59,0,0,0-.33.19l-.13.08-.28.21a5.3,5.3,0,0,0-2.09,3.73,5.69,5.69,0,0,0,1.76,4.49c3,3,7,4.88,10.49,6.51l1.61.76A157.36,157.36,0,0,0,48.68,158.6c0,.39-.07.77-.09,1.16s-.05.51-.07.77a13.89,13.89,0,0,0,0,3.65,2.94,2.94,0,0,0,0,.42h0c.17,4,.52,12.42,6.81,14.81a6,6,0,0,0,2.1.38,6.39,6.39,0,0,0,4.64-2.08,9,9,0,0,0,1.87-3.27c.36-1,.66-2,1-3,.23-.76.46-1.52.72-2.3a.74.74,0,0,0,0-.14c.15-.42.3-.85.45-1.3.4-1.15.81-2.35,1.26-3.53.22-.52.44-1,.67-1.51,2.61.46,5.29.89,8.13,1.32A352,352,0,0,0,129,167.84c7.42,0,15.06-.22,22.73-.63a327.79,327.79,0,0,0,40.32-4.6l.14.28,0,.08c.15.31.29.66.43,1l.21.48c.41,1.11.8,2.23,1.17,3.31l.38,1.12s0,.08,0,.12l.06.22c.18.5.34,1.13.51,1.79a16.19,16.19,0,0,0,2.83,6.49,6.32,6.32,0,0,0,6.59,2c3.19-.89,4.61-3.88,5.15-5a25,25,0,0,0,2-9.73,15.29,15.29,0,0,0,0-5.11c0-.32-.08-.61-.1-.84s0-.34,0-.51c3-.78,5.84-1.59,8.63-2.45A137.46,137.46,0,0,0,244.53,146l.51-.26c3.13-1.54,6.55-3.45,7.6-6.61a5.79,5.79,0,0,0-.32-4.47A5.72,5.72,0,0,0,251.28,133.23Z"/><path class="cls-12" d="M42.49,103.91ZM251,133c-2.28-8.39-7.91-16.07-16.76-22.84A27.12,27.12,0,0,0,218.06,100l-.27,0-.63-.1a136,136,0,0,0-18.43-7.25,72.31,72.31,0,0,0-55.85-52.31,74.25,74.25,0,0,0-13.42-1.38h-.64A70.39,70.39,0,0,0,85.18,54.36a2.11,2.11,0,0,0-.23.19l-.08.06c-.65.52-1.29,1-1.91,1.58A72.09,72.09,0,0,0,72.72,67l-.14.17c-.09.13-.19.25-.29.38l-.21.29L72,68A71.68,71.68,0,0,0,59.82,93.65a133.27,133.27,0,0,0-14.83,6,20.45,20.45,0,0,0-2.78.07l-.16,0c-8,.76-15.88,6.29-20.11,14.1a11.14,11.14,0,0,0-.55,1.15c-5.44,5.14-9.17,10.64-11.14,16.39a7.27,7.27,0,0,0-1.47.44,4.55,4.55,0,0,0-.55.26l-.34.19-.12.08-.28.21a5.3,5.3,0,0,0-2.09,3.73,5.65,5.65,0,0,0,1.76,4.49c3,3,7,4.88,10.49,6.51l1.61.76a157,157,0,0,0,29.15,10.28l-.09,1.16c0,.25,0,.51-.06.77a13.44,13.44,0,0,0,0,3.65c0,.14,0,.28,0,.42h0c.17,4,.51,12.42,6.8,14.81a6.09,6.09,0,0,0,2.1.38,6.4,6.4,0,0,0,4.65-2.08,9,9,0,0,0,1.87-3.27c.35-1,.66-2,.95-3,.23-.76.45-1.52.72-2.3,0,0,0-.09,0-.14.15-.42.3-.85.45-1.3.4-1.15.81-2.35,1.26-3.53.22-.52.44-1,.66-1.51,2.62.46,5.3.9,8.13,1.33a353.56,353.56,0,0,0,52.82,3.83c7.42,0,15.06-.22,22.72-.63a327.74,327.74,0,0,0,40.33-4.6l.13.28,0,.08c.15.31.29.66.43,1l.2.48c.42,1.11.8,2.23,1.17,3.31.14.39.27.77.39,1.13l0,.11a1.87,1.87,0,0,1,.07.22c.17.5.34,1.13.51,1.79a16.23,16.23,0,0,0,2.83,6.5,6.34,6.34,0,0,0,6.59,2c3.19-.89,4.61-3.88,5.15-5a25,25,0,0,0,2-9.73,15.29,15.29,0,0,0,0-5.11c0-.32-.08-.61-.1-.84s0-.34,0-.51q4.43-1.17,8.63-2.44a138.52,138.52,0,0,0,24.51-9.9l.51-.26c3.12-1.54,6.55-3.45,7.6-6.61a5.79,5.79,0,0,0-.33-4.47A5.44,5.44,0,0,0,251,133Z"/><path class="cls-13" d="M42.23,103.63Zm208.52,29.05c-2.27-8.4-7.9-16.08-16.75-22.85a27.12,27.12,0,0,0-16.2-10.14l-.28,0-.62-.1a136.53,136.53,0,0,0-18.43-7.25A72.31,72.31,0,0,0,142.62,40a74.27,74.27,0,0,0-13.43-1.38h-.64A70.36,70.36,0,0,0,84.92,54.08l-.24.19-.08.06c-.64.52-1.28,1.05-1.9,1.58A72.09,72.09,0,0,0,72.46,66.76l-.14.17-.29.38-.21.29-.07.1a71.87,71.87,0,0,0-12.2,25.67,133.88,133.88,0,0,0-14.82,6,20.6,20.6,0,0,0-2.79.07l-.15,0c-8,.76-15.88,6.29-20.11,14.1-.2.36-.38.74-.56,1.15C15.69,119.84,12,125.34,10,131.09a7.27,7.27,0,0,0-1.47.44,4.67,4.67,0,0,0-.56.26l-.33.19-.12.08a3.4,3.4,0,0,0-.28.21A5.35,5.35,0,0,0,5.13,136a5.72,5.72,0,0,0,1.76,4.49c3,3,7,4.88,10.5,6.51l1.61.76A157,157,0,0,0,48.15,158l-.09,1.16c0,.26,0,.51-.07.77a13.89,13.89,0,0,0,0,3.65c0,.14,0,.28,0,.42h0c.16,4,.51,12.42,6.8,14.81a6,6,0,0,0,2.1.38,6.41,6.41,0,0,0,4.65-2.08,8.84,8.84,0,0,0,1.86-3.27c.36-1,.66-2,1-3,.22-.76.45-1.52.72-2.3,0,0,0-.09,0-.14q.23-.63.45-1.29c.4-1.16.81-2.36,1.25-3.54l.67-1.51c2.61.46,5.3.9,8.13,1.33a353.56,353.56,0,0,0,52.82,3.83c7.41,0,15.06-.22,22.72-.63a326.26,326.26,0,0,0,40.33-4.6l.13.28,0,.08c.15.32.3.66.43,1l.21.48c.42,1.11.8,2.23,1.17,3.31.14.39.27.77.39,1.13l0,.11c0,.08.05.15.07.22.17.5.34,1.13.51,1.79a16,16,0,0,0,2.83,6.5,6.33,6.33,0,0,0,6.59,2c3.19-.89,4.61-3.88,5.14-5a24.8,24.8,0,0,0,2-9.73,15.29,15.29,0,0,0,0-5.11,8.15,8.15,0,0,1-.1-.84c0-.17,0-.34,0-.51,2.94-.78,5.83-1.59,8.62-2.44a138.64,138.64,0,0,0,24.52-9.9l.51-.26c3.12-1.54,6.54-3.45,7.59-6.61a5.74,5.74,0,0,0-.32-4.47A5.06,5.06,0,0,0,250.75,132.68Z"/><path class="cls-14" d="M42,103.35ZM250.49,132.4c-2.27-8.4-7.9-16.08-16.75-22.85a27.15,27.15,0,0,0-16.2-10.14l-.28,0-.62-.1A137.87,137.87,0,0,0,198.21,92a72.48,72.48,0,0,0-69.28-53.69h-.64A70.4,70.4,0,0,0,84.65,53.8l-.23.19-.08.06c-.64.52-1.28,1.05-1.9,1.58A72.09,72.09,0,0,0,72.2,66.48l-.14.17c-.1.13-.2.25-.29.38l-.21.29-.08.1A72,72,0,0,0,59.29,93.1a132,132,0,0,0-14.82,6,20.56,20.56,0,0,0-2.79.07l-.15,0c-8,.76-15.89,6.29-20.11,14.1a12.27,12.27,0,0,0-.56,1.15c-5.43,5.14-9.16,10.64-11.13,16.4a6,6,0,0,0-1.47.43,4.67,4.67,0,0,0-.56.26l-.33.19-.12.08A2.27,2.27,0,0,0,7,132a5.27,5.27,0,0,0-2.1,3.73,5.72,5.72,0,0,0,1.76,4.49c3,3,7,4.88,10.49,6.52l1.61.75a156.63,156.63,0,0,0,29.16,10.28l-.09,1.16c0,.26,0,.51-.07.77a13.89,13.89,0,0,0,0,3.65c0,.14,0,.28,0,.42h0c.17,4,.52,12.42,6.81,14.81a5.82,5.82,0,0,0,2.1.38,6.34,6.34,0,0,0,4.64-2.08,8.78,8.78,0,0,0,1.87-3.26c.36-1,.66-2,.95-3,.23-.76.46-1.52.73-2.3a.65.65,0,0,1,0-.13c.14-.43.29-.86.45-1.3.39-1.16.8-2.36,1.25-3.54.22-.52.45-1,.67-1.5,2.61.45,5.3.89,8.13,1.32A353.36,353.36,0,0,0,128.19,167c7.41,0,15.06-.21,22.72-.63a326.26,326.26,0,0,0,40.33-4.6c0,.09.08.19.13.28l0,.08c.15.32.29.66.43,1l.21.49c.42,1.1.8,2.22,1.17,3.3.13.39.26.77.39,1.13l0,.11a1.42,1.42,0,0,0,.07.22c.17.5.33,1.13.51,1.79a16,16,0,0,0,2.82,6.5,6.35,6.35,0,0,0,6.6,2c3.18-.89,4.61-3.88,5.14-5a24.61,24.61,0,0,0,2-9.73,14.78,14.78,0,0,0,0-5.11c0-.32-.08-.61-.09-.84s0-.34,0-.51c2.94-.77,5.83-1.59,8.62-2.44a138.22,138.22,0,0,0,24.51-9.9l.52-.26c3.12-1.54,6.54-3.45,7.59-6.61a5.74,5.74,0,0,0-.32-4.47A5.06,5.06,0,0,0,250.49,132.4Z"/></g><path class="cls-3" d="M250.49,132.4c-2.27-8.4-7.9-16.08-16.75-22.85a27.15,27.15,0,0,0-16.2-10.14l-.28,0-.62-.1A137.87,137.87,0,0,0,198.21,92a72.48,72.48,0,0,0-69.28-53.69h-.64A70.4,70.4,0,0,0,84.65,53.8l-.23.19-.08.06c-.64.52-1.28,1.05-1.9,1.58A72.09,72.09,0,0,0,72.2,66.48l-.14.17c-.1.13-.2.25-.29.38l-.21.29-.08.1A72,72,0,0,0,59.29,93.1a132,132,0,0,0-14.82,6,20.56,20.56,0,0,0-2.79.07l-.15,0c-8,.76-15.89,6.29-20.11,14.1a12.27,12.27,0,0,0-.56,1.15c-5.43,5.14-9.16,10.64-11.13,16.4a6,6,0,0,0-1.47.43,4.67,4.67,0,0,0-.56.26l-.33.19-.12.08A2.27,2.27,0,0,0,7,132a5.27,5.27,0,0,0-2.1,3.73,5.72,5.72,0,0,0,1.76,4.49c3,3,7,4.88,10.49,6.52l1.61.75a156.63,156.63,0,0,0,29.16,10.28l-.09,1.16c0,.26,0,.51-.07.77a13.89,13.89,0,0,0,0,3.65c0,.14,0,.28,0,.42h0c.17,4,.52,12.42,6.81,14.81a5.82,5.82,0,0,0,2.1.38,6.34,6.34,0,0,0,4.64-2.08,8.78,8.78,0,0,0,1.87-3.26c.36-1,.66-2,.95-3,.23-.76.46-1.52.73-2.3a.65.65,0,0,1,0-.13c.14-.43.29-.86.45-1.3.39-1.16.8-2.36,1.25-3.54.22-.52.45-1,.67-1.5,2.61.45,5.3.89,8.13,1.32A353.36,353.36,0,0,0,128.19,167c7.41,0,15.06-.21,22.72-.63a326.26,326.26,0,0,0,40.33-4.6c0,.09.08.19.13.28l0,.08c.15.32.29.66.43,1l.21.49c.42,1.1.8,2.22,1.17,3.3.13.39.26.77.39,1.13l0,.11a1.42,1.42,0,0,0,.07.22c.17.5.33,1.13.51,1.79a16,16,0,0,0,2.82,6.5,6.35,6.35,0,0,0,6.6,2c3.18-.89,4.61-3.88,5.14-5a24.61,24.61,0,0,0,2-9.73,14.78,14.78,0,0,0,0-5.11c0-.32-.08-.61-.09-.84s0-.34,0-.51c2.94-.77,5.83-1.59,8.62-2.44a138.22,138.22,0,0,0,24.51-9.9l.52-.26c3.12-1.54,6.54-3.45,7.59-6.61a5.74,5.74,0,0,0-.32-4.47A5.06,5.06,0,0,0,250.49,132.4ZM42,103.35Z"/><path class="cls-15" d="M68.25,154.41l-13.76-2.86a56.53,56.53,0,0,0-1.14,12.54,9.06,9.06,0,0,0,8.45,3.35C65.34,157.13,68.25,154.41,68.25,154.41Z"/><path class="cls-16" d="M68.32,154.36,54.55,151.5s-.19,0-.2.05a72.28,72.28,0,0,0-1.07,8.29c-.13,1.83-.59,3.77.73,5.15,2.06,2.16,5,2.65,7.83,2.5,0,0,.08,0,.09,0,1.47-4.2,3.12-9.81,6.45-13,0-.05-.2-.09-.26,0-1.71,1.65-2.78,4.15-3.77,6.26-.54,1.14-1,2.32-1.48,3.49-.28.71-.54,1.41-.79,2.12-1,2.73-5.38.48-6.81-.46-2.81-1.86-1.77-6-1.47-8.86.15-1.43.38-2.85.61-4.26s-.21-1.14.81-.93l4.87,1,8.09,1.68C68.26,154.47,68.49,154.4,68.32,154.36Z"/><path class="cls-17" d="M53.35,164.09c.38,11.15,5.35,13.53,6.93,8.16q.77-2.64,1.52-4.81A9.06,9.06,0,0,1,53.35,164.09Z"/><path class="cls-18" d="M53.22,164.06c.13,3.11.36,9.51,4,10.89a2,2,0,0,0,2.17-.65,4.83,4.83,0,0,0,.93-1.73c.59-1.68,1-3.41,1.61-5.1,0-.06-.15-.09-.19-.09a9.31,9.31,0,0,1-8.27-3.29c0-.06-.31-.08-.24,0a9.31,9.31,0,0,0,4.83,3.15,10,10,0,0,0,2,.3c.81.06,1.62-.24,1.25.86-.52,1.53-.88,3.13-1.48,4.63a3.14,3.14,0,0,1-1.58,1.81c-1.21.52-2.26-.87-2.8-1.74-1.6-2.59-1.88-6-2-9C53.47,164,53.21,164,53.22,164.06Z"/><g class="cls-2"><path class="cls-19" d="M57.93,175c1-.07,1.84-1,2.35-2.74s1-3.18,1.44-4.56a14.46,14.46,0,0,1-4.45-.78C57.4,169.32,57.61,172,57.93,175Z"/></g><g class="cls-2"><path class="cls-20" d="M68.25,154.41,59.5,152c-.24,1.82-2.23,4.5-2.23,14.87a14.46,14.46,0,0,0,4.45.78c0-.08.05-.17.08-.25C65.34,157.13,68.25,154.41,68.25,154.41Z"/></g><path class="cls-21" d="M54.09,164.09c.07-5.71,3.07-9.3,2.8-5.87a125.72,125.72,0,0,0,0,12.73C57.06,174.83,54,170.86,54.09,164.09Z"/><path class="cls-22" d="M189.68,154.41l13.77-2.86a57,57,0,0,1,1.13,12.54,9.05,9.05,0,0,1-8.45,3.35C192.59,157.13,189.68,154.41,189.68,154.41Z"/><path class="cls-16" d="M189.77,154.47l8.09-1.68,4.87-1c1-.21.57-.34.79.91.38,2,.62,4.13.8,6.2.23,2.7.63,5.11-1.67,6.91-2.07,1.63-6.06,2.51-7.2-.58-.56-1.54-1.2-3-1.87-4.53-1-2.11-2.07-4.62-3.78-6.27-.05,0-.31-.06-.24,0,3.32,3.2,5,8.83,6.44,13,0,0,.11.07.15.07a9.85,9.85,0,0,0,8.19-2.93c1.06-1.11.35-4.21.25-5.63a67.82,67.82,0,0,0-1-7.38c0-.06-.17-.08-.22-.07l-13.77,2.86C189.45,154.38,189.7,154.48,189.77,154.47Z"/><path class="cls-23" d="M204.58,164.09c-.38,11.15-5.35,13.53-6.92,8.16q-.78-2.64-1.53-4.81A9.05,9.05,0,0,0,204.58,164.09Z"/><path class="cls-18" d="M204.45,164.11a20.73,20.73,0,0,1-1.85,8.72c-.49.93-1.35,2.12-2.53,2.11-.91,0-1.53-.95-1.89-1.66a31.27,31.27,0,0,1-1.42-4.36c-.28-.87-.62-1.34.52-1.36a13.84,13.84,0,0,0,2.12-.21,8.89,8.89,0,0,0,5.3-3.26c.07-.08-.19-.07-.24,0a9.27,9.27,0,0,1-8.27,3.3s-.22,0-.2.09c.75,2.16,1,5,2.55,6.83a2,2,0,0,0,2.17.65c1.19-.34,1.94-1.68,2.43-2.71a21.13,21.13,0,0,0,1.58-8.18C204.72,164,204.45,164,204.45,164.11Z"/><g class="cls-2"><path class="cls-24" d="M201.5,166.44a49.93,49.93,0,0,0-2.71-13.92l-9.11,1.89s2.87,2.69,6.39,12.86A9.88,9.88,0,0,0,201.5,166.44Z"/></g><g class="cls-2"><path class="cls-25" d="M196.07,167.27l.06.17q.75,2.17,1.53,4.81c.75,2.58,2.29,3.36,3.73,2.25a54.91,54.91,0,0,0,.11-8.06A9.88,9.88,0,0,1,196.07,167.27Z"/></g><path class="cls-21" d="M204.14,163.27c-.34-5.7-3.06-9.15-2.66-5.74s.55,8.83.61,12.71S204.54,170,204.14,163.27Z"/><path class="cls-26" d="M130.1,158.94c48.49,0,90.86-9.14,113.76-22.75C238.65,109.68,189.71,88.9,130.1,88.9S21.55,109.68,16.34,136.19C39.24,149.8,81.61,158.94,130.1,158.94Z"/><path class="cls-27" d="M130.09,159.05A341.55,341.55,0,0,0,196,152.9c16.55-3.29,33.42-8.06,48.06-16.65a.07.07,0,0,0,0-.05c-2.92-13.82-15.56-23-27.3-29.32-18.45-9.87-39.72-14.42-60.37-16.7A241,241,0,0,0,85,93c-18.55,3.55-37.66,9.63-53,21-7.41,5.5-14,12.94-15.95,22.19a.1.1,0,0,0,0,.05c14.29,8.38,30.6,13,46.71,16.38,22.08,4.63,44.76,6.38,67.28,6.43.32,0,.33-.22,0-.22-26-.05-52.14-2.43-77.4-8.78a158.83,158.83,0,0,1-28.45-9.86c-2.07-1-4.08-2-6.07-3.12-2.18-1.21-1.06-3.17-.37-5a32.65,32.65,0,0,1,5.05-8.72c11.49-14.83,31.66-22.25,49.09-27,25.33-7,52.24-8.48,78.35-6.44,20.52,1.61,41.23,5.84,60.1,14.25,12.54,5.6,26.12,14.08,31.72,27.24a27.67,27.67,0,0,1,1.32,4.17c.32,1.34-4,3-4.83,3.4a114.9,114.9,0,0,1-11.54,5.06,190.3,190.3,0,0,1-27.3,7.93c-22.82,5-46.34,6.91-69.67,7C129.78,158.83,129.78,159.05,130.09,159.05Z"/><path class="cls-28" d="M242.37,136.76c-22.9,13.61-65.27,22.75-113.76,22.75s-90.86-9.14-113.76-22.75c-3.18-1.8-6,.53,0,3.77,22.9,13.61,65.27,22.75,113.76,22.75s90.86-9.14,113.76-22.75C246.52,138,245.3,135.1,242.37,136.76Z"/><path class="cls-18" d="M242.26,136.72c-17.84,10.46-38.8,15.33-59,18.6-26.6,4.31-53.84,5.05-80.7,3.23-24-1.62-48.4-5.49-71-14A117,117,0,0,1,19.09,139c-1.72-.88-4.35-3.27-6.48-2.95-1.24.19-2,1.11-.84,2.25,2.82,2.86,7.12,4.59,10.7,6.3,17,8.1,35.84,12.21,54.32,15a358.8,358.8,0,0,0,73.16,3.1c22.25-1.21,44.62-4.42,66-10.92a131.65,131.65,0,0,0,23.29-9.4c1.38-.73,7.1-3.18,5.87-5.6-.55-1.09-2-.43-2.81-.1-.09,0,.16.11.22.08l2.43.56a4.73,4.73,0,0,1-2.65,3.13,27.9,27.9,0,0,1-2.44,1.39c-1.73,1-3.5,1.83-5.28,2.68a132.76,132.76,0,0,1-14.26,5.69,218.11,218.11,0,0,1-31.44,7.89c-26.81,4.9-54.37,6-81.54,4.49-24.51-1.34-49.35-5-72.58-13.13a128.63,128.63,0,0,1-13-5.36c-1.76-.84-3.49-1.76-5.19-2.7A32.5,32.5,0,0,1,12.68,139c-3.27-2.47,2.15-2.14,3.68-1.28a123.36,123.36,0,0,0,23.81,10c34.52,11,72.21,13.18,108.18,11.37a304.05,304.05,0,0,0,54.07-7.36c13.84-3.22,27.75-7.67,40.06-14.89C242.57,136.75,242.32,136.68,242.26,136.72Z"/><path class="cls-27" d="M223.1,112.33c-8.52,7.14-19.16,11.56-29.66,14.91a198.3,198.3,0,0,1-44,8.2,255.06,255.06,0,0,1-49.88-.79,180.43,180.43,0,0,1-42-9.5c-8.32-3.07-16.59-7-23.43-12.74-.1-.09-.62-.11-.48,0,8.2,6.85,18.32,11.2,28.37,14.53a193.72,193.72,0,0,0,41.9,8.39,258.09,258.09,0,0,0,48.7.09A195.35,195.35,0,0,0,195,127.09c10.14-3.3,20.39-7.7,28.62-14.59.11-.09-.37-.28-.5-.17Z"/><path class="cls-29" d="M220.87,111.57c-8.45,7.07-19,11.42-29.38,14.74a194.79,194.79,0,0,1-43.09,8.05,252.92,252.92,0,0,1-49.29-.76,175,175,0,0,1-40.75-9.23c-7.82-2.88-15.66-6.61-22.09-12a5.4,5.4,0,0,0-3.54-1.17c-.52,0-2.25.42-1.26,1.24,8.59,7.19,19.13,11.79,29.69,15.28a200.24,200.24,0,0,0,43.16,8.67,264.81,264.81,0,0,0,49.81.07,196.21,196.21,0,0,0,42.8-8.46c10.24-3.32,20.59-7.79,28.91-14.76.85-.71-1.18-1.58-1.56-1.71-.93-.31-2.56-.68-3.41,0Z"/><path class="cls-30" d="M128.61,93.54c-27.05,0-50.08,4.54-58.79,10.88,16.53,7.8,36.84,12.41,58.79,12.41s42.25-4.61,58.79-12.41C178.69,98.07,155.66,93.54,128.61,93.54Z"/><path class="cls-27" d="M128.49,93.42a204.64,204.64,0,0,0-36.32,3.07c-7.67,1.41-16.11,3.31-22.6,7.85-.07,0,.07.13.1.15,36.32,16.87,81.63,16.9,118,0,.08,0,0-.1,0-.14-6.21-4.35-14.11-6.15-21.43-7.64-12.36-2.52-25.09-3.28-37.68-3.32-.35,0,.07.24.23.24a211.59,211.59,0,0,1,33.54,2.58c7.86,1.29,16.13,3.09,23.14,7.05,2.43,1.37-.43,2-2,2.73-2.16.94-4.36,1.78-6.57,2.59a130,130,0,0,1-15.49,4.5,148.75,148.75,0,0,1-32.85,3.6,148.33,148.33,0,0,1-34.23-3.93,129.55,129.55,0,0,1-15.33-4.65c-2.62-1-5.17-2-7.71-3.19-1.9-.86,2-2.37,2.74-2.71,6.94-3.45,14.9-5,22.49-6.2a202.65,202.65,0,0,1,32.27-2.37C129.08,93.66,128.65,93.42,128.49,93.42Z"/><g class="cls-2"><path class="cls-31" d="M128.61,93.54c-27.05,0-50.08,4.54-58.79,10.88,16.53,7.8,36.84,12.41,58.79,12.41s42.25-4.61,58.79-12.41C178.69,98.07,155.66,93.54,128.61,93.54Z"/></g><path class="cls-32" d="M75.26,97s18.44-6.71,53.35-6.71,57.15,8,57.15,8c4,1.56-25.22-5.89-57.15-5.89S67.71,100.19,75.26,97Z"/><g class="cls-33"><path class="cls-34" d="M128.61,89.47C69,89.47,20.06,110.25,14.85,136.76c22.9,13.61,65.27,22.75,113.76,22.75s90.86-9.14,113.76-22.75C237.16,110.25,188.22,89.47,128.61,89.47Zm68.53,11.91,7.44,2.91a13.14,13.14,0,0,0-2.9,15.12s-19.54,11.52-58.24,14c0-.34,0-.68,0-1a15,15,0,0,0-9-13.76C186.5,117.49,197.14,101.38,197.14,101.38Zm-143.79,3.8,5.43-3.8s11.81,16.05,63.66,17.25a15,15,0,0,0-9,13.76c0,.33,0,.67,0,1-38.93-2.54-60.15-14.16-60.15-14.16S57.92,112,53.35,105.18ZM19.72,136.4a31.11,31.11,0,0,1,4.68-9.15c1.37,2.2,4,3.53,7.51,3.53,4.5,0,9.56-2.13,13.75-5.44,13.59,5.47,37.5,12.89,70.24,14.6a14.86,14.86,0,0,0,25.37.08c31.55-1.55,54.72-9.29,68.43-15.38,4.56,4,10.37,6.66,15.49,6.66,4.83,0,7.93-2.36,8.75-6a32.6,32.6,0,0,1,4.28,8.1s-28.14,24.16-109.61,24.16S19.72,136.4,19.72,136.4Z"/></g><g class="cls-2"><path class="cls-35" d="M130.27,154.92a1.26,1.26,0,1,1-1.26-1.27A1.27,1.27,0,0,1,130.27,154.92Z"/><path class="cls-35" d="M100.23,152.39A1.27,1.27,0,1,1,99,151.12,1.26,1.26,0,0,1,100.23,152.39Z"/><path class="cls-35" d="M74.47,148.67a1.27,1.27,0,1,1-1.26-1.26A1.25,1.25,0,0,1,74.47,148.67Z"/><path class="cls-35" d="M48.4,143.13a1.26,1.26,0,1,1-1.26-1.26A1.25,1.25,0,0,1,48.4,143.13Z"/><path class="cls-35" d="M22.65,134.36a1.27,1.27,0,1,1-1.27-1.27A1.27,1.27,0,0,1,22.65,134.36Z"/><path class="cls-35" d="M159.16,152.39a1.27,1.27,0,0,1-2.53,0,1.27,1.27,0,1,1,2.53,0Z"/><path class="cls-35" d="M186.16,148.67a1.27,1.27,0,1,1-1.27-1.26A1.26,1.26,0,0,1,186.16,148.67Z"/><path class="cls-35" d="M210.54,141.87a1.27,1.27,0,1,1-1.27-1.27A1.27,1.27,0,0,1,210.54,141.87Z"/><path class="cls-35" d="M236.27,131.46A1.27,1.27,0,1,1,235,130.2,1.26,1.26,0,0,1,236.27,131.46Z"/></g><path class="cls-36" d="M129.87,154.43a1.26,1.26,0,1,1-1.26-1.26A1.26,1.26,0,0,1,129.87,154.43Z"/><path class="cls-18" d="M129.74,154.39a1.14,1.14,0,0,1-2.24.29c-.42-1.54,2.1-1.89,2.24-.27,0,.07.27.13.26,0a1.39,1.39,0,0,0-2.78-.06c-.16,1.7,2.63,1.82,2.78.08C130,154.38,129.75,154.33,129.74,154.39Z"/><path class="cls-37" d="M99.83,151.9a1.26,1.26,0,1,1-1.26-1.26A1.26,1.26,0,0,1,99.83,151.9Z"/><path class="cls-18" d="M99.7,151.86a1.14,1.14,0,0,1-2.25.3c-.41-1.51,2.1-2,2.25-.28,0,.07.27.14.26.05a1.39,1.39,0,0,0-2.78-.07c-.15,1.69,2.62,1.84,2.78.09C100,151.86,99.71,151.8,99.7,151.86Z"/><path class="cls-38" d="M74.07,148.18a1.26,1.26,0,1,1-1.26-1.26A1.26,1.26,0,0,1,74.07,148.18Z"/><path class="cls-18" d="M73.94,148.15a1.13,1.13,0,0,1-2.24.28c-.43-1.55,2.1-1.88,2.24-.26,0,.07.27.12.26,0a1.39,1.39,0,0,0-2.78,0c-.16,1.7,2.63,1.81,2.78.07C74.21,148.13,74,148.08,73.94,148.15Z"/><path class="cls-39" d="M48,142.64a1.27,1.27,0,1,1-1.27-1.26A1.27,1.27,0,0,1,48,142.64Z"/><path class="cls-18" d="M47.87,142.67c-.06.7-.59,1.78-1.81.91a1.22,1.22,0,0,1-.45-1,1.15,1.15,0,0,1,1.82-.91,1.25,1.25,0,0,1,.44,1c0,.07.28,0,.27,0a1.4,1.4,0,0,0-2.8,0c-.15,1.74,2.65,1.64,2.8,0C48.14,142.56,47.88,142.58,47.87,142.67Z"/><path class="cls-40" d="M22.25,133.87A1.27,1.27,0,1,1,21,132.61,1.27,1.27,0,0,1,22.25,133.87Z"/><path class="cls-18" d="M22.12,133.85a1.45,1.45,0,0,1-.29.8c-.66.92-1.9.08-2-.75a1.3,1.3,0,0,1,.3-.8c.65-.93,1.89-.09,2,.75,0,.09.27.11.26.05a1.4,1.4,0,0,0-2.79-.05c-.15,1.69,2.64,1.78,2.79.05C22.39,133.82,22.12,133.77,22.12,133.85Z"/><path class="cls-41" d="M158.76,151.9a1.26,1.26,0,1,1-1.26-1.26A1.26,1.26,0,0,1,158.76,151.9Z"/><path class="cls-18" d="M158.63,151.89A1.32,1.32,0,0,1,158,153c-1,.68-1.6-.36-1.66-1a1.23,1.23,0,0,1,.61-1.06c1-.68,1.59.36,1.65,1,0,.08.27.1.27,0a1.4,1.4,0,0,0-2.8,0c-.15,1.7,2.64,1.75,2.8,0C158.91,151.84,158.64,151.81,158.63,151.89Z"/><path class="cls-42" d="M185.76,148.18a1.27,1.27,0,1,1-1.26-1.26A1.27,1.27,0,0,1,185.76,148.18Z"/><path class="cls-18" d="M185.62,148.18a1.44,1.44,0,0,1-.29.8c-.86.46-1.46.4-1.79-.17a1.14,1.14,0,0,1-.17-.62,1.23,1.23,0,0,1,.29-.8c.86-.46,1.46-.4,1.8.17a1.22,1.22,0,0,1,.16.62c0,.08.28.08.27,0a1.4,1.4,0,0,0-2.79,0c-.16,1.72,2.64,1.72,2.79,0C185.9,148.11,185.63,148.1,185.62,148.18Z"/><path class="cls-43" d="M210.14,141.38a1.27,1.27,0,1,1-1.26-1.26A1.25,1.25,0,0,1,210.14,141.38Z"/><path class="cls-18" d="M210,141.37a1.36,1.36,0,0,1-.61,1.07c-1,.67-1.59-.38-1.65-1.05a1.23,1.23,0,0,1,.6-1.06c1-.67,1.6.37,1.66,1,0,.09.27.09.27,0a1.4,1.4,0,0,0-2.8,0c-.15,1.71,2.64,1.74,2.8,0C210.28,141.32,210,141.29,210,141.37Z"/><path class="cls-44" d="M235.87,131a1.26,1.26,0,1,1-1.26-1.27A1.26,1.26,0,0,1,235.87,131Z"/><path class="cls-18" d="M235.74,131a1.42,1.42,0,0,1-.29.8c-.71,1-1.89.1-2-.75a1.25,1.25,0,0,1,.29-.8c.71-1,1.89-.1,2,.75,0,.09.27.11.26.05a1.39,1.39,0,0,0-2.78-.05c-.16,1.69,2.63,1.79,2.78.05C236,130.92,235.74,130.88,235.74,131Z"/><path class="cls-27" d="M128.34,93.57v23.29c0,.14.54.1.54-.07V93.5c0-.14-.54-.09-.54.07Z"/><path class="cls-45" d="M121.09,97a.67.67,0,1,1-.67-.67A.67.67,0,0,1,121.09,97Z"/><path class="cls-18" d="M121,97c-.07.62-.42.62-1.07,0,.06-.63.42-.63,1.07,0,0,.08.28.07.27,0a.81.81,0,0,0-1.61,0c-.15.92,1.46.94,1.61,0C121.24,96.94,121,96.91,121,97Z"/><path class="cls-46" d="M109.59,97.67a.67.67,0,1,1-.67-.67A.67.67,0,0,1,109.59,97.67Z"/><path class="cls-18" d="M109.45,97.66c-.06.63-.41.64-1.06,0,.06-.63.41-.63,1.06,0,0,.09.29.08.27,0a.81.81,0,0,0-1.6,0c-.16.93,1.45,1,1.6,0C109.74,97.6,109.47,97.58,109.45,97.66Z"/><path class="cls-47" d="M98.09,99a.67.67,0,1,1-.67-.67A.67.67,0,0,1,98.09,99Z"/><path class="cls-18" d="M98,99c-.06.62-.41.63-1.07,0,.06-.63.42-.64,1.07,0,0,.09.28.09.27,0a.81.81,0,0,0-1.61,0c-.15.92,1.46,1,1.61,0C98.24,99,98,98.92,98,99Z"/><path class="cls-48" d="M89.09,100.71a.67.67,0,1,1-.67-.67A.67.67,0,0,1,89.09,100.71Z"/><path class="cls-18" d="M89,100.71c-.06.62-.42.62-1.07,0-.11-.68,1-.65,1.07,0,0,.08.28.07.27,0a.81.81,0,0,0-1.61,0c-.15.92,1.46.94,1.61,0C89.24,100.65,89,100.62,89,100.71Z"/><path class="cls-49" d="M79,103.62a.67.67,0,1,1-.67-.67A.67.67,0,0,1,79,103.62Z"/><path class="cls-27" d="M78.75,103.54c0,.23-.43,1-.79.34s.67-1,.79-.31c0,.15.54.26.51.1-.15-1-1.67-1.23-1.85-.13s1.68,1.24,1.85.16C79.29,103.53,78.77,103.4,78.75,103.54Z"/><path class="cls-50" d="M135.79,97a.67.67,0,1,0,.67-.67A.67.67,0,0,0,135.79,97Z"/><path class="cls-18" d="M135.65,97a.81.81,0,0,0,1.61,0c.15-.92-1.46-.93-1.61,0,0,.07.26.09.27,0A.54.54,0,0,1,137,97c.11.69-1,.65-1.07,0C135.91,96.92,135.64,96.93,135.65,97Z"/><path class="cls-51" d="M147.29,97.67A.67.67,0,1,0,148,97,.67.67,0,0,0,147.29,97.67Z"/><path class="cls-18" d="M147.15,97.69a.81.81,0,0,0,1.61,0c.15-1-1.46-.87-1.61,0,0,.06.26,0,.27,0,.66-.59,1-.58,1.08,0-.66.6-1,.58-1.08,0C147.41,97.57,147.14,97.61,147.15,97.69Z"/><path class="cls-52" d="M158.79,99a.67.67,0,1,0,.67-.67A.67.67,0,0,0,158.79,99Z"/><path class="cls-18" d="M158.66,99a.81.81,0,0,0,1.61,0c.14-.91-1.46-1-1.61-.05,0,.07.25.13.26.05,0-.47.36-.56,1.05-.25.34.67-.95.85-1.05.24C158.91,99,158.65,98.92,158.66,99Z"/><path class="cls-53" d="M167.79,100.71a.67.67,0,1,0,.67-.67A.67.67,0,0,0,167.79,100.71Z"/><path class="cls-18" d="M167.66,100.69a.81.81,0,0,0,1.61,0c.14-.92-1.46-1-1.61,0,0,.08.25.11.26,0,.06-.63.42-.64,1.08,0-.06.62-.42.64-1.08,0C167.91,100.64,167.65,100.64,167.66,100.69Z"/><path class="cls-54" d="M177.87,103.62a.67.67,0,1,0,.67-.67A.67.67,0,0,0,177.87,103.62Z"/><path class="cls-18" d="M177.74,103.63a.81.81,0,0,0,1.61,0c.15-1-1.46-.9-1.61,0,0,.06.26.06.27,0,.65-.61,1-.6,1.06,0-.65.61-1,.6-1.06,0C178,103.53,177.73,103.56,177.74,103.63Z"/><g class="cls-55"><path class="cls-3" d="M224,115.18c-.81,1.52-3.8,1.52-6.68,0s-4.55-4-3.74-5.53,3.8-1.52,6.68,0S224.79,113.65,224,115.18Z"/></g><path class="cls-56" d="M25.09,143.13s31,17.43,105.18,17.43c3.26,0,73.58.41,103.08-18.44,0,0-24.69,19.85-103.08,19.85S25.09,143.13,25.09,143.13Z"/><path class="cls-21" d="M69.82,104.42a81.84,81.84,0,0,0,12.33,5.09s-7.49,5.18-9.34,20.45c0,0-15.88-4.38-17.35-5.47C55.46,124.49,58.93,111.43,69.82,104.42Z"/><path class="cls-21" d="M57.58,125.29s10.43,3.42,17.68,5.27a65.2,65.2,0,0,0-5.66,24.09,137.78,137.78,0,0,1-20.67-4.5S49.87,134.4,57.58,125.29Z"/><path class="cls-21" d="M181.59,107.07A83.19,83.19,0,0,1,171,111.16s6.88,6.25,6.75,20.3c0,0,10-2,14.37-3.63C192.08,127.83,190.12,113.94,181.59,107.07Z"/><path class="cls-21" d="M172.86,132.72s12.39-2.67,16.58-3.91c0,0,6,8.74,6,24.36,0,0-13.47,2.66-19.51,3.29C175.91,156.46,177.05,144.28,172.86,132.72Z"/><path class="cls-57" d="M145.66,88.51s4.84,6.83,5.55,13.44c0,0,.29,2.8-1.11,3a4,4,0,0,1-4.67-2.87,34.12,34.12,0,0,0-5.53-9.59Z"/><path class="cls-58" d="M151.16,101.55a4.86,4.86,0,0,0-1-1,3.59,3.59,0,0,0-1.36-.6,3.87,3.87,0,0,0-3.46,1.73c0,.13.09.26.13.39A4,4,0,0,0,150.1,105c1.4-.22,1.11-3,1.11-3S151.18,101.68,151.16,101.55Z"/><path class="cls-59" d="M147.15,96.22A14.55,14.55,0,0,0,146,94a19,19,0,0,0,1.17-3.13,32.23,32.23,0,0,1,3.9,9.87,12.07,12.07,0,0,0-2.93-1.12A14.65,14.65,0,0,0,147.15,96.22Z"/><path class="cls-58" d="M143.48,97.83l-.21-.38a13.59,13.59,0,0,1,5.38-3.72c.11.23.23.48.34.73A12.2,12.2,0,0,0,143.48,97.83Z"/><path class="cls-60" d="M145.66,88.51s.42.61,1,1.62a7.78,7.78,0,0,1-1,3.3,5.28,5.28,0,0,0-.9,2c0,.67,2.37,5.37,2.53,7.33.06.61.08,1.22.09,1.83a4,4,0,0,1-2-2.5,34.12,34.12,0,0,0-5.53-9.59Z"/><path class="cls-59" d="M150.6,109.54a3.9,3.9,0,0,0-1.74-1.1,3.61,3.61,0,0,0-2.25-.07,3.28,3.28,0,0,0-.86.63c-.24-2.33-.27-6.54-.27-6.54a2.62,2.62,0,0,1,3.21-1.77,3.08,3.08,0,0,1,2.52,2.43,21.9,21.9,0,0,1-.4,6.66Z"/><path class="cls-59" d="M150.6,109.54a3.9,3.9,0,0,0-1.74-1.1,3.61,3.61,0,0,0-2.25-.07,3.28,3.28,0,0,0-.86.63c-.24-2.33-.27-6.54-.27-6.54a2.62,2.62,0,0,1,3.21-1.77,3.08,3.08,0,0,1,2.52,2.43,21.9,21.9,0,0,1-.4,6.66Z"/><path class="cls-61" d="M145.48,102.46a2.86,2.86,0,0,1,1.89-1.82l-.14.12a2.74,2.74,0,0,0-.81,2.13c0,1.32.16,5,.13,5.51a3.35,3.35,0,0,0-.8.6C145.51,106.67,145.48,102.46,145.48,102.46Z"/><path class="cls-57" d="M148.86,108.44a6.23,6.23,0,0,0-.62-.15l-.33-6.84s.35-.43,1.53,0a2.68,2.68,0,0,1,1.68,2.49,21.38,21.38,0,0,1-.55,5.62A3.94,3.94,0,0,0,148.86,108.44Z"/><path class="cls-57" d="M145.73,108.82c.93-.62,1.58-1.19,3-.67a6.63,6.63,0,0,1,1.82,1.06,4.2,4.2,0,0,1,1.17,2,6.54,6.54,0,0,1,.47,2.62,4.81,4.81,0,0,1-.4,1.53c-.14.32-.34,1-.76,1-.18,0-.29-.09-.35-.26-.07.12-.15.24-.23.35a.63.63,0,0,1-1,.17.45.45,0,0,1-.15-.24,1.65,1.65,0,0,1-.32.28c-.52.3-.86,0-.79-.54a5.55,5.55,0,0,1,.56-1.65,1.75,1.75,0,0,0,.15-.81.88.88,0,0,1,0,.15c-.26.78-.8,1.94-1.64,2.18s-.75-.87-.6-1.3c.21-.6.59-1.13.82-1.71a3.31,3.31,0,0,0,.32-1.51c0-.36-.37-1.22-.83-.67a1.42,1.42,0,0,0-.24.64c-.07.49.28,1.94-.43,2.11-.36.09-.65-.31-.8-.58a4.53,4.53,0,0,1-.27-2.72A7.61,7.61,0,0,1,145.73,108.82Z"/><path class="cls-62" d="M150.3,110.83a5.28,5.28,0,0,0-1.52-.57c0-.35-.12-.72-.16-1a3.82,3.82,0,0,0-.35-1.1l.35.12a6.38,6.38,0,0,1,1.82,1.06,4.17,4.17,0,0,1,1.17,2l.18.55A6.61,6.61,0,0,0,150.3,110.83Z"/><path class="cls-57" d="M140.22,85.17a14.64,14.64,0,0,1,6.06,2.46c2.27,1.88-3.34,9.81-5.41,7.37S139.39,85,140.22,85.17Z"/><path class="cls-59" d="M142.69,95.25c.1-.39.18-.77.25-1.06A15.64,15.64,0,0,0,143.4,91a10.71,10.71,0,0,0-.78-5.24,17.09,17.09,0,0,0-2.4-.59c-.83-.17-1.42,7.39.65,9.83A1.43,1.43,0,0,0,142.69,95.25Z"/><path class="cls-63" d="M144.3,86.75s2.17.52,2.25,2.29-1.6,3.92-2.68,5c0,0,2.23-2.72,2.24-4.47A3.86,3.86,0,0,0,144.3,86.75Z"/><path class="cls-64" d="M149.1,111.28s0,0,0,0a5.11,5.11,0,0,1-.49,3s0,0,0,0A7.6,7.6,0,0,0,149.1,111.28Z"/><path class="cls-64" d="M149.17,116.47a6.31,6.31,0,0,0,1.17-4.81h0a5.21,5.21,0,0,1-1.14,4.84S149.16,116.49,149.17,116.47Z"/><path class="cls-65" d="M145.17,110.3a7.61,7.61,0,0,1,.56-1.48c.93-.62,1.58-1.19,3-.67h0c-.81-.14-1.92-.28-2.08.65-.06.34,0,1.15.49,1.21,1,.13,1.2,1.58.93,2.39a12.88,12.88,0,0,0-.52,1.81.41.41,0,0,0,.65.43,2.57,2.57,0,0,0,.76-1.35,7.36,7.36,0,0,0,.23-1.81,4.88,4.88,0,0,1,0,2.4c-.09.36-.4,1.18-.06,1.5s.9-.41,1-.71a6.17,6.17,0,0,0,.34-2.32,4,4,0,0,1-.11,2.43c-.05.14-.48,1.14,0,1.09s.88-1,1-1.46a6.78,6.78,0,0,0,.25-1.83,4.55,4.55,0,0,1,0,2,3.56,3.56,0,0,0-.32,1.22.23.23,0,0,0,.23.2.68.68,0,0,1-.48.39c-.18,0-.29-.09-.35-.26-.07.12-.15.24-.23.35a.63.63,0,0,1-1,.17.45.45,0,0,1-.15-.24,1.65,1.65,0,0,1-.32.28c-.52.3-.86,0-.79-.54a5.55,5.55,0,0,1,.56-1.65,1.75,1.75,0,0,0,.15-.81.88.88,0,0,1,0,.15c-.26.78-.8,1.94-1.64,2.18s-.75-.87-.6-1.3c.21-.6.59-1.13.82-1.71a3.31,3.31,0,0,0,.32-1.51c0-.36-.37-1.22-.83-.67a1.42,1.42,0,0,0-.24.64c-.07.49.28,1.94-.43,2.11-.36.09-.65-.31-.8-.58A4.53,4.53,0,0,1,145.17,110.3Z"/><path class="cls-64" d="M151.33,114.48a6.85,6.85,0,0,0,.26-1.64c0,.39,0,.79-.06,1.12a2.7,2.7,0,0,1,0,.28,6,6,0,0,1-.88,1.93s0,0,0,0A15.72,15.72,0,0,0,151.33,114.48Z"/><path class="cls-57" d="M109.72,82.1a4.64,4.64,0,0,0-1.38-1.21,8.65,8.65,0,0,0-1.88,1.45,5,5,0,0,0-1.63,3.28c3.39,5.59,9.66,9.83,9.66,9.83l4.15-6A35.56,35.56,0,0,1,109.72,82.1Z"/><path class="cls-57" d="M111.59,84.11a4.06,4.06,0,0,1-1.66,3,4.31,4.31,0,0,1-3.55.72,40.48,40.48,0,0,0,8.11,7.59l4.15-6A38,38,0,0,1,111.59,84.11Z"/><path class="cls-59" d="M109.72,82.1a4.64,4.64,0,0,0-1.38-1.21,8.65,8.65,0,0,0-1.88,1.45,5.39,5.39,0,0,0-1.6,2.88,2.92,2.92,0,0,0,.85,1.3,4.34,4.34,0,0,0,2.59.78c1.19.13,4.23,3.4,4.24,4.54a12.27,12.27,0,0,0,.23,2.33c1,.81,1.72,1.28,1.72,1.28l4.15-6A35.56,35.56,0,0,1,109.72,82.1Z"/><path class="cls-61" d="M108.9,87a4.19,4.19,0,0,0,2.95-2.65,20.54,20.54,0,0,1-2.13-2.26,4.64,4.64,0,0,0-1.38-1.21,8.65,8.65,0,0,0-1.88,1.45,5.39,5.39,0,0,0-1.6,2.88,2.87,2.87,0,0,0,.75,1.19A3.79,3.79,0,0,0,108.9,87Z"/><path class="cls-58" d="M113.19,85.55l.34.3a14.29,14.29,0,0,1-3.88,5.61l-.6-.59A12.76,12.76,0,0,0,113.19,85.55Z"/><path class="cls-57" d="M121.47,97s-4.64,1-8.09-.2-.41-12.84,3.05-10.91S122.5,96.78,121.47,97Z"/><path class="cls-63" d="M116,96.9s-2.74.34-3.6-1.67.14-5.25.91-7c0,0-1.4,4.13-.64,6.16S116,96.9,116,96.9Z"/><path class="cls-66" d="M106.19,87.13a39.56,39.56,0,0,0,6.08,6.25,1.62,1.62,0,0,0-.35-1.22c-.47-.69-3.86-4.22-3.86-4.22Z"/><path class="cls-67" d="M142.86,86.53c-1-2.72-10.32-2.7-10.32-2.7l-3.07.1-3.07,0s-9.27.15-10.26,2.89-.72,22.38.49,24c.83,1.12,5.17,2.42,9.91,3,1.06.13,2,.12,3.11.17s2.26-.08,3.32-.23c4.73-.68,9-2.06,9.85-3.2C144,108.89,143.9,89.24,142.86,86.53Z"/><path class="cls-57" d="M142.12,86.38c-1-2.57-9.75-2.55-9.75-2.55l-2.9.1-2.9,0s-8.76.14-9.7,2.73-.68,21.14.47,22.67c.78,1.06,4.88,2.29,9.36,2.84,1,.13,1.93.12,2.94.16s2.13-.07,3.13-.21c4.47-.64,8.54-2,9.31-3C143.19,107.5,143.1,89,142.12,86.38Z"/><path class="cls-68" d="M130.31,112.28a16.59,16.59,0,0,1-10.49-2.87,12.68,12.68,0,0,1-4.08-5.08c.18,3.31.48,5.9.89,6.45.83,1.12,5.17,2.42,9.91,3,1.06.13,2,.12,3.11.17s2.26-.08,3.32-.23c4.73-.68,9-2.06,9.85-3.2.31-.43.53-2.11.67-4.4C140.53,110.13,135.21,112.08,130.31,112.28Z"/><path class="cls-69" d="M129.68,89.08a24,24,0,0,0,7.66-1.59,10.15,10.15,0,0,0,4.06-2.28c-2.9-1.39-8.86-1.38-8.86-1.38l-3.07.1-3.07,0s-5.54.09-8.52,1.4C120.94,88.15,125.59,89.21,129.68,89.08Z"/><path class="cls-57" d="M120.71,79a3.58,3.58,0,0,1-3.55,3.61h0a3.57,3.57,0,0,1-3.61-3.55l0-2.51a3.59,3.59,0,0,1,3.55-3.62h0a3.59,3.59,0,0,1,3.62,3.55Z"/><path class="cls-70" d="M120.35,78.87a3.22,3.22,0,0,1-3.19,3.26h0a3.23,3.23,0,0,1-3.26-3.19l0-2.27a3.21,3.21,0,0,1,3.19-3.25h0a3.22,3.22,0,0,1,3.26,3.19Z"/><path class="cls-71" d="M116.11,75.31a.73.73,0,0,1-1.46,0,.74.74,0,0,1,.72-.74A.73.73,0,0,1,116.11,75.31Z"/><path class="cls-3" d="M115.44,75.05a.2.2,0,0,1-.4,0,.21.21,0,0,1,.2-.2A.2.2,0,0,1,115.44,75.05Z"/><path class="cls-3" d="M115.05,75.47a.09.09,0,0,1-.09.09.11.11,0,0,1-.1-.09.09.09,0,0,1,.1-.09A.09.09,0,0,1,115.05,75.47Z"/><path class="cls-71" d="M116,78.38a.72.72,0,0,1-.72.74.74.74,0,0,1-.74-.72.73.73,0,0,1,.73-.74A.72.72,0,0,1,116,78.38Z"/><path class="cls-3" d="M115.33,78.13a.19.19,0,0,1-.19.2.2.2,0,0,1-.2-.2.19.19,0,0,1,.19-.2A.2.2,0,0,1,115.33,78.13Z"/><path class="cls-3" d="M114.94,78.55a.09.09,0,1,1-.09-.09A.09.09,0,0,1,114.94,78.55Z"/><path class="cls-69" d="M117.07,72.93a3.69,3.69,0,0,0-1.11.19,13.33,13.33,0,0,0-.43,4.91c.08,1,.15,2,.28,2.93.07.48.12,1,.22,1.48a3.47,3.47,0,0,0,1.13.17A3.58,3.58,0,0,0,120.71,79l0-2.52A3.59,3.59,0,0,0,117.07,72.93Z"/><path class="cls-57" d="M138.14,78.83a3.58,3.58,0,0,0,3.61,3.55h0a3.59,3.59,0,0,0,3.55-3.62l0-2.51a3.59,3.59,0,0,0-3.62-3.55h0a3.59,3.59,0,0,0-3.55,3.62Z"/><path class="cls-70" d="M138.49,78.7a3.23,3.23,0,0,0,3.26,3.2h0a3.23,3.23,0,0,0,3.19-3.26l0-2.26a3.23,3.23,0,0,0-3.25-3.2h0a3.24,3.24,0,0,0-3.2,3.26Z"/><path class="cls-71" d="M142.67,75.06a.73.73,0,0,0,1.46,0,.73.73,0,0,0-.74-.72A.72.72,0,0,0,142.67,75.06Z"/><path class="cls-3" d="M143.33,74.79a.19.19,0,0,0,.2.19.2.2,0,0,0,.2-.2.19.19,0,0,0-.2-.19A.2.2,0,0,0,143.33,74.79Z"/><path class="cls-3" d="M143.73,75.2a.09.09,0,1,0,.09-.09A.09.09,0,0,0,143.73,75.2Z"/><path class="cls-71" d="M142.83,78.13a.73.73,0,1,0,.72-.74A.73.73,0,0,0,142.83,78.13Z"/><path class="cls-3" d="M143.5,77.86a.2.2,0,1,0,.19-.2A.19.19,0,0,0,143.5,77.86Z"/><path class="cls-3" d="M143.9,78.27a.09.09,0,1,0,.09-.09A.09.09,0,0,0,143.9,78.27Z"/><path class="cls-69" d="M141.66,72.7a3.68,3.68,0,0,1,1.11.17,13.25,13.25,0,0,1,.52,4.9c0,1-.11,2-.22,2.93,0,.48-.1,1-.19,1.48a3.24,3.24,0,0,1-1.13.2,3.58,3.58,0,0,1-3.61-3.55l0-2.51A3.59,3.59,0,0,1,141.66,72.7Z"/><path class="cls-57" d="M130.89,62.2a13.89,13.89,0,0,0-3.41,0,12.93,12.93,0,0,0-11.24,13.24c.07,7,.9,9.85,7.27,11.79a18.84,18.84,0,0,0,6,.71,17.37,17.37,0,0,0,5.79-.82c6.33-2.06,7.11-4.93,7-11.93A12.92,12.92,0,0,0,130.89,62.2Z"/><path class="cls-59" d="M117.06,82.26c.89,2.41,2.72,3.86,6.45,5a18.84,18.84,0,0,0,6,.71,17.37,17.37,0,0,0,5.79-.82c3.95-1.29,5.74-2.89,6.51-5.61C133.94,78.81,124.89,79.37,117.06,82.26Z"/><path class="cls-72" d="M118.06,72c.48.15.58-.52.76-.89a18.09,18.09,0,0,1,1.49-2.46,12.56,12.56,0,0,1,3.83-3.5,8.53,8.53,0,0,0-1.09-1.51,12.81,12.81,0,0,0-6.24,7.79A6.41,6.41,0,0,0,118.06,72Z"/><path class="cls-72" d="M138.42,68.65q.51.88,1,1.8l0,0c.49-.41,1-.8,1.51-1.2a12.8,12.8,0,0,0-3.45-4.33l-1,1.16A16.39,16.39,0,0,1,138.42,68.65Z"/><path class="cls-69" d="M140.27,76a11,11,0,1,1-11.05-10.32A10.68,10.68,0,0,1,140.27,76Z"/><path class="cls-73" d="M139.6,75.33a10.31,10.31,0,1,1-10.38-9.69A10,10,0,0,1,139.6,75.33Z"/><path class="cls-74" d="M138.44,70.91a8.27,8.27,0,0,1,.65,4.19,8.76,8.76,0,0,1-6.35,7.27c-3,.89-6.77.88-9.54-.74-4.21-2.46-4.61-7.52-2.59-11.43a9.37,9.37,0,0,0-1.6,5.33,10.31,10.31,0,0,0,20.59-.2A9.27,9.27,0,0,0,138.44,70.91Z"/><path class="cls-75" d="M120.44,77.46a11.7,11.7,0,0,0,.38,1.68,10.14,10.14,0,0,0,.51,1.33c.45.38.93.75,1.43,1.1a18.92,18.92,0,0,0,2.53,1.5,12.45,12.45,0,0,1-1.73-4.42A27.87,27.87,0,0,1,120.44,77.46Z"/><path class="cls-76" d="M128.53,66.49a9.3,9.3,0,0,0-7.13,4.67,10.43,10.43,0,0,0-1.08,5c.94.37,1.92.65,2.86.93l.18,0a11.46,11.46,0,0,1,.11-2.62,9.56,9.56,0,0,1,3.39-6.18,11.46,11.46,0,0,1,3.61-1.9A11.41,11.41,0,0,0,128.53,66.49Z"/><path class="cls-77" d="M136.72,91.52h-2l-10.57.1-2,0c-2,0-2.28,1.55-2.51,2.76l.07,7,0,5.5v.2h0c.25,1.17.65,2.53,2.52,2.51h2l10.56-.1,2,0c1.87,0,2.25-1.39,2.47-2.56h0v-.2l-.05-5.51-.07-7C139,93,138.7,91.5,136.72,91.52Z"/><path class="cls-57" d="M136.39,91.8l-1.87,0-9.94.1H122.7c-1.86,0-2.15,1.46-2.36,2.6l.06,6.61,0,5.18v.19h0c.23,1.1.61,2.38,2.37,2.36l1.87,0,10-.09,1.87,0c1.76,0,2.11-1.3,2.33-2.4h0v-.19l0-5.18-.06-6.61C138.57,93.22,138.25,91.79,136.39,91.8Z"/><path class="cls-63" d="M118.72,109.74s-1.29-12.19-.51-16.67c0,0,.32-2.34,1.66-2.78s8,.39,8,.39L121.1,91s-1.79.13-2.11,2.88C118.64,96.87,118.88,96.64,118.72,109.74Z"/><path class="cls-63" d="M140.44,109.54s1.06-12.21.19-16.69c0,0-.36-2.33-1.71-2.74s-8,.55-8,.55l6.82.19s1.79.1,2.16,2.84C140.28,96.67,140,96.44,140.44,109.54Z"/><path class="cls-58" d="M110.17,86.63a4.14,4.14,0,0,0,1.2-2.73,18.67,18.67,0,0,1-1.65-1.8,4.64,4.64,0,0,0-1.38-1.21,8.65,8.65,0,0,0-1.88,1.45,5,5,0,0,0-1.63,3.28c.38.62.79,1.23,1.22,1.81C107.28,88.19,109.2,87.55,110.17,86.63Z"/><path class="cls-59" d="M105.33,76.91a4.57,4.57,0,0,0,1.94,1.36,4.09,4.09,0,0,0,2.56.19,3.42,3.42,0,0,0,1-.67c.15,2.68.25,5.84.25,5.84s-.53,3.6-4,3.49a3.52,3.52,0,0,1-2.75-2.91,25.35,25.35,0,0,1,.82-7.58A3.42,3.42,0,0,0,105.33,76.91Z"/><path class="cls-57" d="M108,78.9v-.43l-.7-.2a4.51,4.51,0,0,1-1.9-1.32c-.06.18-.11.39-.16.6A3.48,3.48,0,0,0,108,78.9Z"/><path class="cls-57" d="M105.07,78.13a22.93,22.93,0,0,0-.63,5.21,3,3,0,0,0,1.78,2.93c1.34.5,1.75,0,1.75,0V79.36A4.06,4.06,0,0,1,105.07,78.13Z"/><path class="cls-59" d="M112.57,71.81a1.59,1.59,0,0,0-1.46.58,7.28,7.28,0,0,0-1,1.45,13.43,13.43,0,0,1-.71-3.5c0-.42,0-.85,0-1.27a1.73,1.73,0,0,0-.23-.86c-.56-.42-1-.35-1.18.2h0a5.6,5.6,0,0,0-.19.81,5.41,5.41,0,0,0-.09.82q0,.17,0,.3v.12c-.2-.9-.2-1.83-.47-2.71a.63.63,0,0,0-1.09-.13,3.27,3.27,0,0,0-.52,2.12,9.76,9.76,0,0,1-.33-1c-.12-.47-.58-.92-1.09-.54a1.65,1.65,0,0,0-.56,1.77s0,.11,0,.17a.69.69,0,0,0-.55-.27c-.94.06-.87,1-.81,1.71A9.22,9.22,0,0,0,104,76.21a8.53,8.53,0,0,0,1.79,2,4.43,4.43,0,0,0,4.87.21c1-.79,1.09-2.11,1.35-3.29a8.37,8.37,0,0,1,.4-1.29,4.89,4.89,0,0,0,.58-1.6A.44.44,0,0,0,112.57,71.81Z"/><path class="cls-78" d="M112.8,71.93c-1.19-.13-1.91,1.57-2.45,2.33a2.93,2.93,0,0,0-.43,3.35c.12.27-.28.51-.4.24a3.34,3.34,0,0,1-.42-2.4,7.52,7.52,0,0,1,1-1.66,13.88,13.88,0,0,1-.69-3.45c0-.42,0-.85,0-1.27a1.42,1.42,0,0,0-.06-.42s0,0,0,0c-.23-.62-.72,0-.82.29s-.33.59-.4.89a12.12,12.12,0,0,1-.27,1.47c-.06-.28-.12-.56-.17-.85v0c-.19-.85-.2-1.72-.43-2.56-.56-.5-1.16.18-1.24.71s-.19,1.71-.28,1.47-.09-.27-.13-.4v.06a9.76,9.76,0,0,1-.33-1,1,1,0,0,0-.41-.6c-1.13.16-.8,2.45-.93,2.29s-.18-.2-.27-.3h0a.69.69,0,0,0-.55-.27l-.23,0c-1.06.82.71,4.54,1.13,5.31a7.89,7.89,0,0,0,2.67,3.14,5,5,0,0,0,2.49.68,3.08,3.08,0,0,0,1.44-.59c1-.79,1.09-2.11,1.35-3.29a8.37,8.37,0,0,1,.4-1.29,4.89,4.89,0,0,0,.58-1.6A.46.46,0,0,0,112.8,71.93Z"/><path class="cls-78" d="M109.18,70.77a10,10,0,0,0,.59,3.48c.1-.16.21-.31.32-.46a13.88,13.88,0,0,1-.69-3.45c0-.42,0-.85,0-1.27a1.75,1.75,0,0,0,0-.4C109.38,69.36,109.18,70.1,109.18,70.77Z"/><path class="cls-79" d="M108.24,73.39c-.45-.38-1-.16-1.53-.06-.26,0-.68.31-.93.39a1.69,1.69,0,0,0-1.16,1c-.09.26.15.53.42.59a3,3,0,0,0,.84,0,2.73,2.73,0,0,0,1.35-.52,3,3,0,0,0,1-1C108.37,73.6,108.34,73.48,108.24,73.39Z"/><path class="cls-78" d="M112.22,73.48a13,13,0,0,0-.75,3.32,4.59,4.59,0,0,1-.53,1.36,6.18,6.18,0,0,0,1-3,8.37,8.37,0,0,1,.4-1.29,4.89,4.89,0,0,0,.58-1.6s0-.06,0-.09A5.61,5.61,0,0,1,112.22,73.48Z"/><path class="cls-69" d="M108.52,72.93h0a10.42,10.42,0,0,1-.8-2.46c0,.09,0,.17,0,.25a6.65,6.65,0,0,0,.74,2.2,4.14,4.14,0,0,0-1.63.23,28.86,28.86,0,0,1-1.21-3.61s0,.1,0,.15a5.08,5.08,0,0,0,.13.78c.06.22.12.43.17.65a13.8,13.8,0,0,0,.82,2.06l-.08,0a9.84,9.84,0,0,0-1.48.59,13.45,13.45,0,0,1-.75-2.16,3.32,3.32,0,0,0-.61-1.41l-.19-.11a4.08,4.08,0,0,1,.83,2.06,6.38,6.38,0,0,0,.63,1.67,1.64,1.64,0,0,0-.41.31A8.21,8.21,0,0,1,108.52,72.93Z"/><path class="cls-69" d="M110.19,73.65a6.2,6.2,0,0,0-1.26,2.16,2.28,2.28,0,0,0,.48,2s.06,0,0,0h0s0,0,0,0A9.3,9.3,0,0,1,109,76c0-.9.8-1.62,1.21-2.35C110.26,73.62,110.21,73.63,110.19,73.65Z"/><path class="cls-57" d="M108.62,78.91a4.24,4.24,0,0,1-2.49-1,9,9,0,0,1-1.69-2c-1-1.54-2.06-3.79-1.73-5.7,0,0,0,0,0,0-.5,1.93.47,4,1.42,5.69s2.59,3.17,4.49,3.06C108.62,79,108.66,78.91,108.62,78.91Z"/><path class="cls-80" d="M133.09,99.19a3.81,3.81,0,0,1,0,4.4l1,.73a5,5,0,0,0-.07-5.95l-.55.5Z"/><path class="cls-81" d="M134.9,105l-3.22-2.46a1.89,1.89,0,0,0,.38-1.05,1.92,1.92,0,0,0-.29-1.07l1.54-1.4,1.62-1.51a.26.26,0,0,0,0-.37l-.22-.23A6.37,6.37,0,0,0,130.39,95V94.1a.5.5,0,0,0,0-.17.51.51,0,0,0-.09-.16.38.38,0,0,0-.14-.11.38.38,0,0,0-.34,0,.53.53,0,0,0-.15.11.37.37,0,0,0-.08.15.28.28,0,0,0,0,.18V95a6.32,6.32,0,0,0-1.15.22V94.1a.55.55,0,0,0,0-.18.48.48,0,0,0-.08-.16.4.4,0,0,0-.15-.1.38.38,0,0,0-.34,0,.45.45,0,0,0-.14.1.6.6,0,0,0-.09.15.37.37,0,0,0,0,.18l0,1.45a6.38,6.38,0,0,0-3.08,2.92,6.46,6.46,0,0,0-.58,4.21,6.41,6.41,0,0,0,6.14,5.13l4.69,0a.27.27,0,0,0,.27-.27v-2.37A.26.26,0,0,0,134.9,105Zm-4.76,1.68a5.26,5.26,0,0,1-2.59-9.82v1.73a.55.55,0,0,0,0,.18.36.36,0,0,0,.08.15.42.42,0,0,0,.15.11.38.38,0,0,0,.34,0,.49.49,0,0,0,.14-.11.38.38,0,0,0,.09-.15.33.33,0,0,0,0-.17V96.44a5.25,5.25,0,0,1,4.94.75.15.15,0,0,1,0,.21l-2.45,2.25a2,2,0,0,0-1.5,0,1.89,1.89,0,0,0-.64.48,1.94,1.94,0,0,0-.39.7,1.82,1.82,0,0,0-.06.8,1.86,1.86,0,0,0,1.6,1.61,1.8,1.8,0,0,0,.8-.06l3.13,2.39a.14.14,0,0,1,.06.11v.84a.13.13,0,0,1-.13.13Zm.77-5.25a.85.85,0,0,1-.12.41.77.77,0,0,1-.34.28.71.71,0,0,1-.43,0,.9.9,0,0,1-.38-.21.74.74,0,0,1-.2-.38.68.68,0,0,1,.05-.42.82.82,0,0,1,.27-.34.79.79,0,0,1,.42-.12.7.7,0,0,1,.52.22A.72.72,0,0,1,130.91,101.4Z"/><g class="cls-82"><path class="cls-83" d="M143.08,133.67a13.85,13.85,0,1,1-13.85-13.85A13.84,13.84,0,0,1,143.08,133.67Z"/></g><path class="cls-84" d="M142.78,132.84a13.55,13.55,0,1,1-13.55-13.55A13.55,13.55,0,0,1,142.78,132.84Z"/><path class="cls-18" d="M142.64,132.83a13.76,13.76,0,0,1-11.16,13.3c-8.51,1.83-15.32-5.47-15.65-13.29-.28-6.63,5-12,11.16-13.3,8.51-1.83,15.32,5.47,15.65,13.29,0,.08.27.08.27,0-.75-17.62-26.6-17.64-27.35,0-.33,7.69,6.5,13.29,13.67,13.6,7.63.32,13.37-6.39,13.68-13.59C142.91,132.76,142.64,132.75,142.64,132.83Z"/><g class="cls-2"><path class="cls-85" d="M129.23,119.29a13.55,13.55,0,1,0,13.55,13.55A13.55,13.55,0,0,0,129.23,119.29Zm0,26.13a12.59,12.59,0,1,1,12.59-12.58A12.58,12.58,0,0,1,129.23,145.42Z"/></g><g class="cls-2"><path class="cls-86" d="M140.28,132.84a11,11,0,1,1-11.05-11A11.05,11.05,0,0,1,140.28,132.84Z"/></g><path class="cls-87" d="M139.12,132.84a9.89,9.89,0,1,1-9.89-9.89A9.89,9.89,0,0,1,139.12,132.84Z"/><path class="cls-88" d="M139,132.83a10.16,10.16,0,0,1-6.72,9.34c-6.87,2.7-12.45-3.32-12.77-9.32-.24-4.3,2.94-7.87,6.71-9.35,6.88-2.7,12.46,3.32,12.78,9.33,0,.08.28.09.27,0-.69-12.91-19.34-12.91-20,0-.31,5.68,4.81,9.66,10,9.94,5.63.3,9.74-4.7,10-9.92C139.26,132.77,139,132.75,139,132.83Z"/><g class="cls-55"><path class="cls-3" d="M133.55,126.22c.87,2.21-.92,5-4,6.21s-6.28.41-7.16-1.79.92-5,4-6.21S132.67,124,133.55,126.22Z"/></g><g class="cls-2"><path class="cls-89" d="M130.1,123a8.39,8.39,0,1,1-1.73,0,9.89,9.89,0,1,0,1.73,0Z"/></g><path class="cls-80" d="M132.56,130.59a3.81,3.81,0,0,1,0,4.4l1,.73a5,5,0,0,0-.07-5.95l-.55.5Z"/><path class="cls-81" d="M134.37,136.36l-3.22-2.45a1.86,1.86,0,0,0,.09-2.13l1.54-1.39,1.62-1.51a.28.28,0,0,0,0-.38l-.23-.22a6.37,6.37,0,0,0-4.32-1.89v-.89a.55.55,0,0,0,0-.18.71.71,0,0,0-.08-.15.42.42,0,0,0-.15-.11.38.38,0,0,0-.34,0,.38.38,0,0,0-.14.11.34.34,0,0,0-.09.15.28.28,0,0,0,0,.18v.91a6.48,6.48,0,0,0-1.15.22V125.5a1.09,1.09,0,0,0,0-.18.51.51,0,0,0-.09-.16.33.33,0,0,0-.14-.1.39.39,0,0,0-.18,0,.38.38,0,0,0-.17,0,.33.33,0,0,0-.14.1.6.6,0,0,0-.09.15.37.37,0,0,0,0,.18l0,1.45a6.41,6.41,0,0,0,2.48,12.26l4.69,0a.27.27,0,0,0,.27-.27v-2.37A.29.29,0,0,0,134.37,136.36Zm-4.76,1.69a5.28,5.28,0,0,1-3.19-1.09,5.28,5.28,0,0,1,.6-8.73V130a.47.47,0,0,0,0,.17.4.4,0,0,0,.08.16.42.42,0,0,0,.15.11.38.38,0,0,0,.34,0,.49.49,0,0,0,.14-.11.34.34,0,0,0,.09-.15.28.28,0,0,0,0-.18v-2.12a5.28,5.28,0,0,1,1.8-.31,5.21,5.21,0,0,1,3.14,1.06.13.13,0,0,1,0,.2l-2.45,2.26a1.92,1.92,0,0,0-.71-.15,2,2,0,0,0-.79.17,1.77,1.77,0,0,0-.64.48,1.86,1.86,0,0,0-.39.7,1.8,1.8,0,0,0-.06.8,1.91,1.91,0,0,0,.84,1.33,2.05,2.05,0,0,0,.76.28,1.8,1.8,0,0,0,.8-.06L133.3,137a.12.12,0,0,1,0,.1v.84a.13.13,0,0,1-.13.14Zm.77-5.25a.78.78,0,0,1-.12.41.84.84,0,0,1-.34.28.77.77,0,0,1-.42,0,.79.79,0,0,1-.38-.21.72.72,0,0,1-.21-.38.76.76,0,0,1,.32-.76.8.8,0,0,1,.42-.13.71.71,0,0,1,.52.23A.72.72,0,0,1,130.38,132.8Z"/><g class="cls-82"><path class="cls-90" d="M52.15,117.43c-3.38,6.72-11.64,12.17-18.44,12.17s-9.57-5.45-6.19-12.17S39.16,105.25,46,105.25,55.53,110.7,52.15,117.43Z"/></g><path class="cls-91" d="M51.6,116.48C48.37,123,40.48,128.25,34,128.25s-9.15-5.27-5.92-11.77,11.13-11.77,17.63-11.77S54.84,110,51.6,116.48Z"/><path class="cls-18" d="M51.47,116.45a23.72,23.72,0,0,1-12,10.61c-4.16,1.75-10.33,1.75-12.32-3.08-1-2.41.05-5.26,1-7.47,2.2-4.93,7.18-8.6,12-10.62,4.17-1.74,10.34-1.75,12.33,3.08,1,2.42,0,5.27-1,7.48,0,.06.23.14.27.06,2.15-4.81,1.54-11.47-4.94-11.8-7.89-.41-15.23,5-18.87,11.74-2.57,4.74-1.27,11.48,4.93,11.8,7.89.41,15.23-5,18.88-11.74C51.77,116.46,51.51,116.37,51.47,116.45Z"/><g class="cls-2"><path class="cls-92" d="M28.06,116.48A22,22,0,0,1,34.5,109a20.13,20.13,0,0,0-5.62,6.7c-3,6-.55,11,5.5,11s13.4-4.91,16.41-11,.6-10.85-5.31-11h.21c6.5,0,9.15,5.27,5.91,11.77S40.48,128.25,34,128.25,24.83,123,28.06,116.48Z"/></g><g class="cls-2"><path class="cls-93" d="M48.8,116c-2.61,5.25-9,9.5-14.23,9.5s-7.4-4.25-4.78-9.5,9-9.51,14.23-9.51S51.41,110.79,48.8,116Z"/></g><path class="cls-94" d="M47.86,115.55c-2.36,4.74-8.12,8.59-12.86,8.59s-6.68-3.85-4.32-8.59S38.8,107,43.54,107,50.22,110.8,47.86,115.55Z"/><path class="cls-88" d="M47.73,115.52a17.49,17.49,0,0,1-7.64,7.27c-2.9,1.5-7.41,2.16-9.62-.86-1.14-1.57-.63-3.77-.08-5.43,1.33-4,5.27-7,8.93-8.58,3-1.32,7.4-1.43,9.06,1.87.91,1.8.09,4.07-.65,5.74,0,.06.23.12.27,0,1.55-3.49,1.17-8.35-3.57-8.61-5.81-.32-11.19,3.63-13.88,8.57-1.88,3.44-1,8.38,3.57,8.62,5.8.33,11.18-3.62,13.87-8.56C48,115.5,47.77,115.45,47.73,115.52Z"/><g class="cls-2"><path class="cls-95" d="M35,124.14c4.74,0,10.5-3.85,12.86-8.59s.43-8.6-4.32-8.6-10.5,3.85-12.86,8.6S30.25,124.14,35,124.14Zm-2.61-10c1.89-3.8,6.5-6.87,10.3-6.87s5.34,3.07,3.45,6.87S39.65,121,35.85,121,30.51,117.89,32.39,114.09Z"/></g><g class="cls-55"><path class="cls-3" d="M33.84,114.83c.81,1.53,3.8,1.52,6.68,0s4.55-4,3.74-5.53-3.8-1.52-6.68,0S33,113.3,33.84,114.83Z"/></g><path class="cls-80" d="M37.4,112.07a3.66,3.66,0,0,0-2.93,3.27l-1.23-.12a4.8,4.8,0,0,1,4-4.38l.1.75Z"/><path class="cls-81" d="M32.14,115.1l4.15.42a1.84,1.84,0,0,1,.4-1,1.87,1.87,0,0,1,1-.6l-.27-2.11-.25-2.25a.24.24,0,0,1,.24-.28h.33a6.74,6.74,0,0,1,4.62,1.6l.59-.67A.77.77,0,0,1,43,110a.49.49,0,0,1,.17-.06.38.38,0,0,1,.18,0,.35.35,0,0,1,.16.08.72.72,0,0,1,.11.15.58.58,0,0,1,0,.18.5.5,0,0,1-.14.32l-.61.68a6.44,6.44,0,0,1,.75,1l.75-.85a.53.53,0,0,1,.13-.13.49.49,0,0,1,.17-.06.57.57,0,0,1,.18,0,.37.37,0,0,1,.16.09.49.49,0,0,1,.11.14.58.58,0,0,1,0,.18.34.34,0,0,1,0,.18.33.33,0,0,1-.1.14l-1,1.09a6.53,6.53,0,0,1,.45,4.32,6.21,6.21,0,0,1-2.35,3.54,6.39,6.39,0,0,1-4.12,1.2A6.79,6.79,0,0,1,34,120.59l-3.67-3.25a.27.27,0,0,1,0-.38l1.58-1.77A.31.31,0,0,1,32.14,115.1Zm2.58,4.58a5.63,5.63,0,0,0,3.21,1.4,5.23,5.23,0,0,0,3.33-.8,5.09,5.09,0,0,0,2.07-2.67,5.43,5.43,0,0,0,0-3.45l-1.15,1.3a.5.5,0,0,1-.13.12.49.49,0,0,1-.17.06.55.55,0,0,1-.18,0,.51.51,0,0,1-.16-.09.72.72,0,0,1-.11-.15.58.58,0,0,1,0-.18.33.33,0,0,1,0-.17.24.24,0,0,1,.1-.14l1.41-1.59a5.63,5.63,0,0,0-4.34-2.88.12.12,0,0,0-.14.14l.4,3.39a1.86,1.86,0,0,1,.65.38,2.18,2.18,0,0,1,.5.67,1.91,1.91,0,0,1,.18.81,1.93,1.93,0,0,1-.17.79,1.72,1.72,0,0,1-.49.64,1.85,1.85,0,0,1-1.54.4,2,2,0,0,1-.77-.31,2,2,0,0,1-.58-.6l-4-.41a.13.13,0,0,0-.12,0l-.55.63a.14.14,0,0,0,0,.19Zm2.91-4.45a.67.67,0,0,0-.18.39.75.75,0,0,0,.08.44.74.74,0,0,0,.3.33.92.92,0,0,0,.43.11.78.78,0,0,0,.42-.14.71.71,0,0,0,.24-.35.73.73,0,0,0,0-.44.81.81,0,0,0-.23-.39.78.78,0,0,0-.56-.19A.65.65,0,0,0,37.63,115.23Z"/><g class="cls-82"><path class="cls-96" d="M205.61,117.57c3.34,6.72,11.51,12.17,18.23,12.17s9.47-5.45,6.12-12.17-11.5-12.18-18.23-12.18S202.27,110.84,205.61,117.57Z"/></g><path class="cls-97" d="M206.9,116.88c3.23,6.5,11.12,11.77,17.62,11.77s9.15-5.27,5.92-11.77-11.12-11.78-17.62-11.78S203.67,110.37,206.9,116.88Z"/><path class="cls-18" d="M206.77,116.89c3.51,6.47,10.25,11.48,17.75,11.81,7.11.31,8.47-6.43,6-11.83-2.94-6.59-10.64-11.51-17.75-11.82s-8.46,6.43-6,11.84c0,.07.3,0,.26,0-3.46-7.76,1.07-13.53,10.19-11,5.58,1.55,10.38,6,13.09,11,4.21,7.77-1.83,13.31-10.19,11-5.58-1.56-10.38-6-13.09-11C207,116.8,206.73,116.82,206.77,116.89Z"/><g class="cls-2"><path class="cls-98" d="M230.44,116.88a21.92,21.92,0,0,0-6.43-7.51,20.32,20.32,0,0,1,5.62,6.69c3,6.06.54,11-5.51,11s-13.4-4.9-16.41-11-.59-10.84,5.31-11h-.2c-6.5,0-9.15,5.27-5.92,11.78s11.12,11.77,17.62,11.77S233.67,123.38,230.44,116.88Z"/></g><g class="cls-2"><path class="cls-99" d="M209.7,116.43c2.62,5.25,9,9.51,14.24,9.51s7.39-4.26,4.78-9.51-9-9.5-14.23-9.5S207.09,111.18,209.7,116.43Z"/></g><path class="cls-100" d="M210.64,116c2.36,4.74,8.12,8.59,12.87,8.59s6.68-3.85,4.32-8.59-8.12-8.6-12.87-8.6S208.28,111.2,210.64,116Z"/><path class="cls-88" d="M210.51,115.94c2.32,4.26,7.09,8.38,12.18,8.61,5.46.26,7.38-3.83,5.27-8.6-1.92-4.33-7.36-8.39-12.18-8.61-5.47-.26-7.38,3.83-5.27,8.6,0,.07.29.08.26,0-2.36-5.33.34-9.59,6.73-8.21,4.34.94,8.13,4.41,10.2,8.2,2.89,5.32-.84,9.48-6.73,8.21-4.34-.94-8.13-4.41-10.2-8.2C210.73,115.88,210.47,115.88,210.51,115.94Z"/><g class="cls-2"><path class="cls-100" d="M227.83,116c-2.36-4.75-8.12-8.6-12.87-8.6s-6.68,3.85-4.32,8.6,8.12,8.59,12.87,8.59S230.19,120.69,227.83,116Zm-5.18,5.41c-3.79,0-8.4-3.07-10.29-6.87s-.34-6.88,3.46-6.88,8.4,3.08,10.29,6.88S226.45,121.36,222.65,121.36Z"/></g><path class="cls-80" d="M220.59,112.35a3.87,3.87,0,0,1,2,1.16,3.83,3.83,0,0,1,1,2.09l1.2-.11a5,5,0,0,0-4.07-4.34l-.07.74Z"/><path class="cls-81" d="M225.82,115.39l-4,.37a1.91,1.91,0,0,0-.42-1,1.93,1.93,0,0,0-.94-.6l.19-2.07.18-2.2a.27.27,0,0,0-.25-.28l-.32,0a6.4,6.4,0,0,0-4.47,1.53l-.59-.66a.49.49,0,0,0-.13-.12.35.35,0,0,0-.17-.06.37.37,0,0,0-.18,0,.31.31,0,0,0-.15.08.4.4,0,0,0-.1.15.32.32,0,0,0,0,.17.47.47,0,0,0,0,.17.31.31,0,0,0,.11.14l.62.68a5.89,5.89,0,0,0-.7.94l-.76-.84a.8.8,0,0,0-.13-.13.37.37,0,0,0-.17-.05.28.28,0,0,0-.18,0,.28.28,0,0,0-.15.08.31.31,0,0,0-.1.15.47.47,0,0,0,0,.17.85.85,0,0,0,0,.17.38.38,0,0,0,.11.14l1,1.08a6.35,6.35,0,0,0-.3,4.23,6.39,6.39,0,0,0,10.4,3.14l3.48-3.15a.27.27,0,0,0,0-.37l-1.6-1.75A.27.27,0,0,0,225.82,115.39Zm-2.37,4.46a5.26,5.26,0,0,1-8.48-2.12,5.29,5.29,0,0,1-.07-3.38l1.16,1.28a.49.49,0,0,0,.13.12.58.58,0,0,0,.17.06.37.37,0,0,0,.18,0,.38.38,0,0,0,.15-.09.33.33,0,0,0,.1-.14.58.58,0,0,0,0-.18.47.47,0,0,0,0-.17.49.49,0,0,0-.11-.14l-1.43-1.57a5.42,5.42,0,0,1,1.12-1.44,5.18,5.18,0,0,1,3-1.34.14.14,0,0,1,.15.14l-.29,3.32a1.86,1.86,0,0,0-1.09,1,1.78,1.78,0,0,0-.15.78,2,2,0,0,0,.19.79,1.89,1.89,0,0,0,.5.63,1.93,1.93,0,0,0,.71.37,2,2,0,0,0,.8,0,2,2,0,0,0,.75-.3,1.94,1.94,0,0,0,.55-.59l3.92-.35a.1.1,0,0,1,.11,0l.57.62a.14.14,0,0,1,0,.19Zm-3-4.4a.72.72,0,0,1,.19.39.79.79,0,0,1-.06.43.65.65,0,0,1-.29.32.75.75,0,0,1-.42.1.65.65,0,0,1-.4-.14.75.75,0,0,1-.26-.35.75.75,0,0,1,.2-.8.76.76,0,0,1,.54-.19A.72.72,0,0,1,220.46,115.45Z"/><g class="cls-2"><path class="cls-101" d="M129.05,119.14c24.77,0,47.45-5.86,65-15.57a65.77,65.77,0,0,0-130,0C81.59,113.28,104.27,119.14,129.05,119.14Z"/><path class="cls-102" d="M129.05,119.25c22.59-.12,45.27-4.75,65.22-15.63a.09.09,0,0,0,0-.06,66.75,66.75,0,0,0-65.26-55.72C96.78,47.54,69,72.05,63.79,103.57a.07.07,0,0,0,0,.05c19.94,10.89,42.62,15.51,65.22,15.63.32,0,.31-.22,0-.22a150.6,150.6,0,0,1-40.71-5.64,122.15,122.15,0,0,1-17-6.3c-2.7-1.22-7.29-2.29-6.62-5.93a65.06,65.06,0,0,1,2.52-9.29C74.09,71.94,90.92,56.57,111,50.6c22.27-6.63,46.67-.07,63.4,15.74a65.63,65.63,0,0,1,18.47,32.44c1,4.17.3,5.17-3.69,7.16a118.48,118.48,0,0,1-18,7,144.75,144.75,0,0,1-42.08,6C128.73,119,128.73,119.25,129.05,119.25Z"/></g><path class="cls-103" d="M73.25,90.89S86,53.09,129.05,53c0,0-37.89,9.61-47.1,42.9C82,95.85,75.37,95.14,73.25,90.89Z"/><g class="cls-104"><path class="cls-101" d="M129.05,48a65.78,65.78,0,0,0-65,55.62c17.53,9.71,40.21,15.57,65,15.57s47.45-5.86,65-15.57A65.77,65.77,0,0,0,129.05,48Zm-6.23,65.77C86.64,113,70.55,103.54,68.69,100s4.16-31.46,31.58-44.19c18.19-8.43,69.3-13.23,79.38,33.56C182.1,100.72,159,114.41,122.82,113.72Z"/></g><path class="cls-21" d="M163.84,69.61c3,13.62-13.7,28.88-37.29,34.08s-45.16-1.63-48.17-15.26,13.7-28.88,37.29-34.08S160.83,56,163.84,69.61Z"/><path class="cls-105" d="M145,61.08c2,6.68-9,16-24.74,20.76s-30.08,3.25-32.11-3.43,9-16,24.74-20.75S143,54.4,145,61.08Z"/><path class="cls-103" d="M72,95.85s2.79,2.73,9.15,3.46a30.47,30.47,0,0,0-1.69,7.29s-5.61,0-9.19-3.58C70.26,103,70.41,98.56,72,95.85Z"/><text class="cls-106" transform="translate(66.09 91.42) rotate(-71.56) scale(1.09 1)"> </text><text class="cls-106" transform="translate(66.65 89.68) rotate(-70.76) scale(1.09 1)"> </text><text class="cls-106" transform="translate(67.23 88.03) rotate(-67.83) scale(1.09 1)"> </text><text class="cls-106" transform="translate(67.93 86.4) rotate(-65.9) scale(1.09 1)"> </text><text class="cls-106" transform="translate(68.66 84.76) rotate(-65.91) scale(1.09 1)"> </text><text class="cls-106" transform="translate(69.36 83.12) rotate(-64.23) scale(1.09 1)"> </text><text class="cls-106" transform="matrix(0.56, -0.94, 0.86, 0.51, 70.14, 81.55)"> </text><text class="cls-106" transform="matrix(0.56, -0.94, 0.86, 0.51, 71.05, 80.01)"> </text><text class="cls-106" transform="matrix(0.56, -0.94, 0.86, 0.51, 71.98, 78.44)"> </text><text class="cls-106" transform="matrix(0.6, -0.92, 0.84, 0.54, 72.86, 76.92)"> </text><text class="cls-106" transform="translate(73.81 75.48) rotate(-51.89) scale(1.09 1)"> </text><text class="cls-106" transform="matrix(0.68, -0.86, 0.79, 0.62, 74.93, 74.06)"> </text><text class="cls-106" transform="translate(76.06 72.62) rotate(-51.82) scale(1.09 1)"> </text><text class="cls-106" transform="translate(77.12 71.2) rotate(-50.74) scale(1.09 1)">T</text><text class="cls-106" transform="matrix(0.77, -0.78, 0.71, 0.7, 79.46, 68.4)">A</text><text class="cls-106" transform="translate(82.84 64.97) rotate(-40.59) scale(1.09 1)">K</text><text class="cls-106" transform="matrix(0.87, -0.66, 0.6, 0.8, 86.4, 61.88)">E</text><text class="cls-106" transform="translate(89.87 59.29) rotate(-32.86) scale(1.09 1)"> </text><text class="cls-106" transform="translate(91.4 58.34) rotate(-31.18) scale(1.09 1)">M</text><text class="cls-106" transform="matrix(0.99, -0.46, 0.42, 0.91, 96.62, 55.07)">E</text><text class="cls-106" transform="translate(100.58 53.22) rotate(-24.76) scale(1.09 1)"> </text><text class="cls-106" transform="translate(102.15 52.44) rotate(-20.76) scale(1.09 1)">T</text><text class="cls-106" transform="matrix(1.04, -0.33, 0.3, 0.95, 105.72, 50.98)">O</text><text class="cls-106" transform="matrix(1.06, -0.27, 0.25, 0.97, 110.94, 49.39)"> </text><text class="cls-106" transform="matrix(1.07, -0.23, 0.21, 0.98, 112.65, 48.93)">T</text><text class="cls-106" transform="matrix(1.08, -0.17, 0.16, 0.99, 116.46, 48.08)">H</text><text class="cls-106" transform="translate(121.59 47.09) rotate(-4) scale(1.09 1)">E</text><text class="cls-106" transform="matrix(1.09, 0.01, -0.01, 1, 125.91, 46.91)"> </text><text class="cls-106" transform="translate(127.73 46.94) rotate(0.68) scale(1.09 1)">Q</text><text class="cls-106" transform="translate(133.18 47.01) rotate(5.2) scale(1.09 1)">U</text><text class="cls-106" transform="translate(138.17 47.45) rotate(9.13) scale(1.09 1)">A</text><text class="cls-106" transform="translate(142.96 48.18) rotate(12.92) scale(1.09 1)">D</text><text class="cls-106" transform="matrix(1.05, 0.32, -0.29, 0.96, 148.17, 49.37)">R</text><text class="cls-106" transform="translate(152.68 50.83) rotate(20.19) scale(1.09 1)">A</text><text class="cls-106" transform="translate(157.01 52.42) rotate(24.69) scale(1.09 1)">T</text><text class="cls-106" transform="matrix(0.97, 0.5, -0.45, 0.89, 160.58, 54.02)">I</text><text class="cls-106" transform="matrix(0.95, 0.54, -0.49, 0.87, 162.4, 54.97)">C</text><text class="cls-106" transform="translate(166.49 57.31) rotate(32.16) scale(1.09 1)"> </text><text class="cls-106" transform="translate(168.01 58.23) rotate(34.84) scale(1.09 1)">L</text><text class="cls-106" transform="matrix(0.85, 0.68, -0.62, 0.78, 171.2, 60.47)">A</text><text class="cls-106" transform="translate(174.96 63.51) rotate(43.43) scale(1.09 1)">N</text><text class="cls-106" transform="matrix(0.74, 0.81, -0.74, 0.67, 178.8, 67.07)">D</text><text class="cls-106" transform="translate(182.35 71.05) rotate(52.38) scale(1.09 1)">S</text><text class="cls-106" transform="translate(184.84 74.28) rotate(55) scale(1.09 1)"> </text></g></g></svg>